# Blender v3.0.1 OBJ File: 'missile.blend'
# www.blender.org
mtllib missile.mtl
o Cylinder
v -1.000000 0.866025 0.500000
v 1.000000 0.866026 0.500000
v -1.000000 0.866025 -0.500000
v 1.000000 0.866026 -0.500000
v 2.146707 0.533218 0.307853
v 2.146707 0.533218 -0.307853
v 3.166246 0.533218 0.307853
v 3.166246 0.533218 -0.307853
v 3.936352 0.866026 0.500000
v 3.936352 0.866026 -0.500000
v 5.369931 0.866026 0.500000
v 5.369931 0.866026 -0.500000
v 6.645502 -0.089350 -0.051586
v 6.645502 0.000000 -0.103172
v 6.645502 -0.089350 0.051586
v 6.645502 0.000000 0.103172
v 6.645502 0.089350 0.051586
v 6.645502 0.089350 -0.051586
v -1.520274 -0.000000 -0.530680
v -1.520274 -0.459583 -0.265340
v -1.520274 -0.459583 0.265340
v -1.520274 -0.000000 0.530680
v -1.520274 0.459583 0.265340
v -1.520274 0.459583 -0.265340
v -0.819139 0.866025 0.025341
v 0.819138 0.866026 0.025341
v -0.819139 0.866025 -0.025341
v 0.819138 0.866026 -0.025341
v -0.819139 1.765665 0.025341
v -0.664989 1.765666 0.025341
v -0.819139 1.765665 -0.025341
v -0.664989 1.765666 -0.025341
v -1.000000 0.006901 1.000000
v 1.000000 0.006901 1.000000
v -1.000000 0.872926 0.500000
v 1.000000 0.872926 0.500000
v 2.146708 0.006901 0.615706
v 2.146708 0.540118 0.307853
v 3.166246 0.006901 0.615707
v 3.166246 0.540118 0.307853
v 3.936352 0.006901 1.000000
v 3.936352 0.872926 0.500000
v 5.369932 0.006901 1.000000
v 5.369932 0.872926 0.500000
v 6.645502 0.006901 -0.103172
v 6.645502 0.096251 -0.051586
v 6.645502 -0.082449 -0.051586
v 6.645502 -0.082449 0.051586
v 6.645502 0.006901 0.103172
v 6.645502 0.096251 0.051586
v -1.520273 0.466483 -0.265340
v -1.520273 0.006901 -0.530680
v -1.520273 -0.452682 -0.265340
v -1.520273 -0.452682 0.265340
v -1.520273 0.006901 0.530680
v -1.520273 0.466483 0.265340
v -0.819138 0.417967 0.762671
v 0.819139 0.417967 0.762671
v -0.819138 0.461860 0.737329
v 0.819139 0.461860 0.737329
v -0.819138 0.867787 1.541782
v -0.664988 0.867787 1.541782
v -0.819138 0.911680 1.516441
v -0.664988 0.911680 1.516441
v -1.000000 -0.855674 0.505976
v 1.000001 -0.855674 0.505976
v -1.000000 0.010351 1.005976
v 1.000000 0.010351 1.005976
v 2.146708 -0.522866 0.313830
v 2.146708 0.010351 0.621683
v 3.166246 -0.522866 0.313830
v 3.166246 0.010351 0.621683
v 3.936352 -0.855674 0.505976
v 3.936352 0.010351 1.005976
v 5.369932 -0.855674 0.505976
v 5.369932 0.010351 1.005976
v 6.645502 0.099701 -0.045610
v 6.645502 0.099701 0.057563
v 6.645502 0.010352 -0.097196
v 6.645502 -0.078998 -0.045610
v 6.645502 -0.078998 0.057563
v 6.645502 0.010351 0.109149
v -1.520273 0.469934 0.271316
v -1.520273 0.469934 -0.259364
v -1.520273 0.010351 -0.524704
v -1.520273 -0.449231 -0.259364
v -1.520273 -0.449232 0.271316
v -1.520273 0.010351 0.536656
v -0.819138 -0.444608 0.743306
v 0.819139 -0.444608 0.743306
v -0.819138 -0.400715 0.768647
v 0.819139 -0.400715 0.768647
v -0.819138 -0.894428 1.522417
v -0.664988 -0.894428 1.522417
v -0.819138 -0.850536 1.547758
v -0.664988 -0.850536 1.547758
v -0.999999 -0.859125 -0.488048
v 1.000001 -0.859125 -0.488048
v -0.999999 -0.859125 0.511952
v 1.000001 -0.859125 0.511952
v 2.146708 -0.526317 -0.295901
v 2.146708 -0.526317 0.319806
v 3.166247 -0.526317 -0.295901
v 3.166247 -0.526317 0.319806
v 3.936353 -0.859124 -0.488047
v 3.936353 -0.859125 0.511952
v 5.369932 -0.859124 -0.488047
v 5.369932 -0.859124 0.511952
v 6.645503 0.096251 0.063539
v 6.645503 0.006901 0.115125
v 6.645503 0.096251 -0.039634
v 6.645503 0.006901 -0.091220
v 6.645503 -0.082449 -0.039634
v 6.645503 -0.082449 0.063539
v -1.520273 0.006901 0.542633
v -1.520273 0.466483 0.277293
v -1.520273 0.466483 -0.253388
v -1.520273 0.006901 -0.518728
v -1.520273 -0.452682 -0.253388
v -1.520273 -0.452682 0.277293
v -0.819138 -0.859125 -0.013389
v 0.819139 -0.859125 -0.013389
v -0.819138 -0.859125 0.037294
v 0.819139 -0.859125 0.037294
v -0.819138 -1.758765 -0.013389
v -0.664988 -1.758765 -0.013389
v -0.819138 -1.758765 0.037294
v -0.664988 -1.758765 0.037294
v -0.999999 0.000000 -0.988047
v 1.000001 0.000000 -0.988047
v -0.999999 -0.866025 -0.488048
v 1.000001 -0.866025 -0.488048
v 2.146708 0.000000 -0.603754
v 2.146708 -0.533217 -0.295901
v 3.166247 0.000000 -0.603754
v 3.166247 -0.533217 -0.295901
v 3.936353 0.000000 -0.988047
v 3.936353 -0.866025 -0.488048
v 5.369932 0.000000 -0.988047
v 5.369932 -0.866025 -0.488048
v 6.645503 0.000000 0.115125
v 6.645503 -0.089350 0.063539
v 6.645503 0.089350 0.063539
v 6.645503 0.089350 -0.039634
v 6.645503 0.000000 -0.091220
v 6.645503 -0.089350 -0.039634
v -1.520273 -0.459583 0.277293
v -1.520273 -0.000000 0.542633
v -1.520273 0.459583 0.277293
v -1.520273 0.459583 -0.253388
v -1.520273 0.000000 -0.518728
v -1.520273 -0.459583 -0.253388
v -0.819138 -0.411066 -0.750718
v 0.819139 -0.411066 -0.750718
v -0.819138 -0.454959 -0.725377
v 0.819139 -0.454959 -0.725377
v -0.819138 -0.860886 -1.529830
v -0.664988 -0.860886 -1.529830
v -0.819138 -0.904779 -1.504488
v -0.664988 -0.904779 -1.504488
v -0.999999 0.862575 -0.494024
v 1.000001 0.862575 -0.494024
v -0.999999 -0.003450 -0.994024
v 1.000001 -0.003450 -0.994024
v 2.146708 0.529767 -0.301877
v 2.146708 -0.003450 -0.609730
v 3.166247 0.529767 -0.301877
v 3.166247 -0.003450 -0.609730
v 3.936353 0.862575 -0.494024
v 3.936353 -0.003450 -0.994024
v 5.369933 0.862575 -0.494024
v 5.369933 -0.003450 -0.994024
v 6.645503 -0.092800 0.057563
v 6.645503 -0.092800 -0.045610
v 6.645503 -0.003450 0.109149
v 6.645503 0.085900 0.057563
v 6.645503 0.085900 -0.045610
v 6.645503 -0.003450 -0.097196
v -1.520272 -0.463033 -0.259364
v -1.520272 -0.463033 0.271316
v -1.520272 -0.003451 0.536657
v -1.520272 0.456132 0.271317
v -1.520272 0.456132 -0.259364
v -1.520272 -0.003450 -0.524704
v -0.819137 0.451509 -0.731353
v 0.819140 0.451509 -0.731353
v -0.819137 0.407616 -0.756694
v 0.819140 0.407616 -0.756694
v -0.819137 0.901329 -1.510464
v -0.664987 0.901329 -1.510464
v -0.819137 0.857436 -1.535806
v -0.664987 0.857436 -1.535806
vt 0.509178 0.012226
vt 0.509178 0.484735
vt 0.397039 0.442006
vt 0.397041 0.054954
vt 0.509178 0.906028
vt 0.363717 0.906028
vt 0.363717 0.665160
vt 0.509178 0.665160
vt 0.294316 0.728185
vt 0.294316 0.964437
vt 0.012225 0.919042
vt 0.012225 0.773580
vt 0.248477 0.703735
vt 0.012225 0.703735
vt 0.012225 0.365049
vt 0.248477 0.365049
vt 0.849263 0.584688
vt 0.828153 0.596875
vt 0.807044 0.584688
vt 0.807044 0.560313
vt 0.828153 0.548126
vt 0.849263 0.560313
vt 0.118165 0.012225
vt 0.142539 0.012225
vt 0.770620 0.200286
vt 0.770620 0.074912
vt 0.879198 0.012225
vt 0.987775 0.074912
vt 0.987775 0.200286
vt 0.879198 0.262974
vt 0.272928 0.484734
vt 0.453739 0.640710
vt 0.328366 0.640709
vt 0.770620 0.332819
vt 0.968822 0.287424
vt 0.968822 0.523676
vt 0.770620 0.478281
vt 0.533628 0.847192
vt 0.533628 0.835218
vt 0.746170 0.835218
vt 0.746170 0.847192
vt 0.385065 0.442006
vt 0.272927 0.012225
vt 0.385066 0.054954
vt 0.284901 0.665160
vt 0.284901 0.701578
vt 0.272927 0.701578
vt 0.272927 0.665160
vt 0.770620 0.548126
vt 0.782594 0.548126
vt 0.782594 0.958147
vt 0.770621 0.958147
vt 0.746170 0.423721
vt 0.746170 0.810768
vt 0.533628 0.460140
vt 0.533628 0.423721
vt 0.746170 0.012225
vt 0.746170 0.399271
vt 0.533628 0.399271
vt 0.533628 0.362853
vt 0.509178 0.012226
vt 0.509178 0.484735
vt 0.397039 0.442006
vt 0.397041 0.054954
vt 0.509178 0.906028
vt 0.363717 0.906028
vt 0.363717 0.665160
vt 0.509178 0.665160
vt 0.294316 0.728185
vt 0.294316 0.964437
vt 0.012225 0.919042
vt 0.012225 0.773580
vt 0.248477 0.703735
vt 0.012225 0.703735
vt 0.012225 0.365049
vt 0.248477 0.365049
vt 0.849263 0.584688
vt 0.828153 0.596875
vt 0.807044 0.584688
vt 0.807044 0.560313
vt 0.828153 0.548126
vt 0.849263 0.560313
vt 0.118165 0.012225
vt 0.142539 0.012225
vt 0.770620 0.200286
vt 0.770620 0.074912
vt 0.879198 0.012225
vt 0.987775 0.074912
vt 0.987775 0.200286
vt 0.879198 0.262974
vt 0.272928 0.484734
vt 0.453739 0.640710
vt 0.328366 0.640709
vt 0.770620 0.332819
vt 0.968822 0.287424
vt 0.968822 0.523676
vt 0.770620 0.478281
vt 0.533628 0.847192
vt 0.533628 0.835218
vt 0.746170 0.835218
vt 0.746170 0.847192
vt 0.385065 0.442006
vt 0.272927 0.012225
vt 0.385066 0.054954
vt 0.284901 0.665160
vt 0.284901 0.701578
vt 0.272927 0.701578
vt 0.272927 0.665160
vt 0.770620 0.548126
vt 0.782594 0.548126
vt 0.782594 0.958147
vt 0.770621 0.958147
vt 0.746170 0.423721
vt 0.746170 0.810768
vt 0.533628 0.460140
vt 0.533628 0.423721
vt 0.746170 0.012225
vt 0.746170 0.399271
vt 0.533628 0.399271
vt 0.533628 0.362853
vt 0.509178 0.012226
vt 0.509178 0.484735
vt 0.397039 0.442006
vt 0.397041 0.054954
vt 0.509178 0.906028
vt 0.363717 0.906028
vt 0.363717 0.665160
vt 0.509178 0.665160
vt 0.294316 0.728185
vt 0.294316 0.964437
vt 0.012225 0.919042
vt 0.012225 0.773580
vt 0.248477 0.703735
vt 0.012225 0.703735
vt 0.012225 0.365049
vt 0.248477 0.365049
vt 0.849263 0.584688
vt 0.828153 0.596875
vt 0.807044 0.584688
vt 0.807044 0.560313
vt 0.828153 0.548126
vt 0.849263 0.560313
vt 0.118165 0.012225
vt 0.142539 0.012225
vt 0.770620 0.200286
vt 0.770620 0.074912
vt 0.879198 0.012225
vt 0.987775 0.074912
vt 0.987775 0.200286
vt 0.879198 0.262974
vt 0.272928 0.484734
vt 0.453739 0.640710
vt 0.328366 0.640709
vt 0.770620 0.332819
vt 0.968822 0.287424
vt 0.968822 0.523676
vt 0.770620 0.478281
vt 0.533628 0.847192
vt 0.533628 0.835218
vt 0.746170 0.835218
vt 0.746170 0.847192
vt 0.385065 0.442006
vt 0.272927 0.012225
vt 0.385066 0.054954
vt 0.284901 0.665160
vt 0.284901 0.701578
vt 0.272927 0.701578
vt 0.272927 0.665160
vt 0.770620 0.548126
vt 0.782594 0.548126
vt 0.782594 0.958147
vt 0.770621 0.958147
vt 0.746170 0.423721
vt 0.746170 0.810768
vt 0.533628 0.460140
vt 0.533628 0.423721
vt 0.746170 0.012225
vt 0.746170 0.399271
vt 0.533628 0.399271
vt 0.533628 0.362853
vt 0.509178 0.012226
vt 0.509178 0.484735
vt 0.397039 0.442006
vt 0.397041 0.054954
vt 0.509178 0.906028
vt 0.363717 0.906028
vt 0.363717 0.665160
vt 0.509178 0.665160
vt 0.294316 0.728185
vt 0.294316 0.964437
vt 0.012225 0.919042
vt 0.012225 0.773580
vt 0.248477 0.703735
vt 0.012225 0.703735
vt 0.012225 0.365049
vt 0.248477 0.365049
vt 0.849263 0.584688
vt 0.828153 0.596875
vt 0.807044 0.584688
vt 0.807044 0.560313
vt 0.828153 0.548126
vt 0.849263 0.560313
vt 0.118165 0.012225
vt 0.142539 0.012225
vt 0.770620 0.200286
vt 0.770620 0.074912
vt 0.879198 0.012225
vt 0.987775 0.074912
vt 0.987775 0.200286
vt 0.879198 0.262974
vt 0.272928 0.484734
vt 0.453739 0.640710
vt 0.328366 0.640709
vt 0.770620 0.332819
vt 0.968822 0.287424
vt 0.968822 0.523676
vt 0.770620 0.478281
vt 0.533628 0.847192
vt 0.533628 0.835218
vt 0.746170 0.835218
vt 0.746170 0.847192
vt 0.385065 0.442006
vt 0.272927 0.012225
vt 0.385066 0.054954
vt 0.284901 0.665160
vt 0.284901 0.701578
vt 0.272927 0.701578
vt 0.272927 0.665160
vt 0.770620 0.548126
vt 0.782594 0.548126
vt 0.782594 0.958147
vt 0.770621 0.958147
vt 0.746170 0.423721
vt 0.746170 0.810768
vt 0.533628 0.460140
vt 0.533628 0.423721
vt 0.746170 0.012225
vt 0.746170 0.399271
vt 0.533628 0.399271
vt 0.533628 0.362853
vt 0.509178 0.012226
vt 0.509178 0.484735
vt 0.397039 0.442006
vt 0.397041 0.054954
vt 0.509178 0.906028
vt 0.363717 0.906028
vt 0.363717 0.665160
vt 0.509178 0.665160
vt 0.294316 0.728185
vt 0.294316 0.964437
vt 0.012225 0.919042
vt 0.012225 0.773580
vt 0.248477 0.703735
vt 0.012225 0.703735
vt 0.012225 0.365049
vt 0.248477 0.365049
vt 0.849263 0.584688
vt 0.828153 0.596875
vt 0.807044 0.584688
vt 0.807044 0.560313
vt 0.828153 0.548126
vt 0.849263 0.560313
vt 0.118165 0.012225
vt 0.142539 0.012225
vt 0.770620 0.200286
vt 0.770620 0.074912
vt 0.879198 0.012225
vt 0.987775 0.074912
vt 0.987775 0.200286
vt 0.879198 0.262974
vt 0.272928 0.484734
vt 0.453739 0.640710
vt 0.328366 0.640709
vt 0.770620 0.332819
vt 0.968822 0.287424
vt 0.968822 0.523676
vt 0.770620 0.478281
vt 0.533628 0.847192
vt 0.533628 0.835218
vt 0.746170 0.835218
vt 0.746170 0.847192
vt 0.385065 0.442006
vt 0.272927 0.012225
vt 0.385066 0.054954
vt 0.284901 0.665160
vt 0.284901 0.701578
vt 0.272927 0.701578
vt 0.272927 0.665160
vt 0.770620 0.548126
vt 0.782594 0.548126
vt 0.782594 0.958147
vt 0.770621 0.958147
vt 0.746170 0.423721
vt 0.746170 0.810768
vt 0.533628 0.460140
vt 0.533628 0.423721
vt 0.746170 0.012225
vt 0.746170 0.399271
vt 0.533628 0.399271
vt 0.533628 0.362853
vt 0.509178 0.012226
vt 0.509178 0.484735
vt 0.397039 0.442006
vt 0.397041 0.054954
vt 0.509178 0.906028
vt 0.363717 0.906028
vt 0.363717 0.665160
vt 0.509178 0.665160
vt 0.294316 0.728185
vt 0.294316 0.964437
vt 0.012225 0.919042
vt 0.012225 0.773580
vt 0.248477 0.703735
vt 0.012225 0.703735
vt 0.012225 0.365049
vt 0.248477 0.365049
vt 0.849263 0.584688
vt 0.828153 0.596875
vt 0.807044 0.584688
vt 0.807044 0.560313
vt 0.828153 0.548126
vt 0.849263 0.560313
vt 0.118165 0.012225
vt 0.142539 0.012225
vt 0.770620 0.200286
vt 0.770620 0.074912
vt 0.879198 0.012225
vt 0.987775 0.074912
vt 0.987775 0.200286
vt 0.879198 0.262974
vt 0.272928 0.484734
vt 0.453739 0.640710
vt 0.328366 0.640709
vt 0.770620 0.332819
vt 0.968822 0.287424
vt 0.968822 0.523676
vt 0.770620 0.478281
vt 0.533628 0.847192
vt 0.533628 0.835218
vt 0.746170 0.835218
vt 0.746170 0.847192
vt 0.385065 0.442006
vt 0.272927 0.012225
vt 0.385066 0.054954
vt 0.284901 0.665160
vt 0.284901 0.701578
vt 0.272927 0.701578
vt 0.272927 0.665160
vt 0.770620 0.548126
vt 0.782594 0.548126
vt 0.782594 0.958147
vt 0.770621 0.958147
vt 0.746170 0.423721
vt 0.746170 0.810768
vt 0.533628 0.460140
vt 0.533628 0.423721
vt 0.746170 0.012225
vt 0.746170 0.399271
vt 0.533628 0.399271
vt 0.533628 0.362853
vn -0.0000 1.0000 0.0000
vn 0.2787 0.9604 0.0000
vn 1.0000 0.0000 0.0000
vn 0.5201 0.8541 0.0000
vn -1.0000 0.0000 0.0000
vn -0.6156 0.7880 0.0000
vn -0.3967 0.9179 0.0000
vn 0.5184 0.8552 0.0000
vn -0.0000 0.0000 1.0000
vn -0.0000 0.0000 -1.0000
vn -0.0000 0.5000 0.8660
vn 0.2787 0.4802 0.8317
vn 0.5201 0.4271 0.7397
vn -0.6156 0.3940 0.6825
vn -0.3967 0.4590 0.7950
vn 0.5184 0.4276 0.7406
vn 0.0000 -0.8660 0.5000
vn -0.0000 0.8660 -0.5000
vn 0.0000 -0.5000 0.8660
vn 0.2787 -0.4802 0.8317
vn 0.5201 -0.4271 0.7397
vn -0.6156 -0.3940 0.6825
vn -0.3967 -0.4590 0.7950
vn 0.5184 -0.4276 0.7406
vn 0.0000 -0.8660 -0.5000
vn -0.0000 0.8660 0.5000
vn 0.0000 -1.0000 -0.0000
vn 0.2787 -0.9604 -0.0000
vn 0.5201 -0.8541 -0.0000
vn -0.6156 -0.7880 -0.0000
vn -0.3967 -0.9179 -0.0000
vn 0.5184 -0.8552 0.0000
vn 0.0000 -0.5000 -0.8660
vn 0.2787 -0.4802 -0.8317
vn 0.5201 -0.4271 -0.7397
vn -0.6156 -0.3940 -0.6825
vn -0.3967 -0.4590 -0.7950
vn 0.5184 -0.4276 -0.7406
vn -0.0000 0.5000 -0.8660
vn 0.2787 0.4802 -0.8317
vn 0.5201 0.4271 -0.7397
vn -0.6156 0.3940 -0.6825
vn -0.3967 0.4590 -0.7950
vn 0.5184 0.4276 -0.7406
usemtl None
s off
f 4/1/1 3/2/1 27/3/1 28/4/1
f 6/5/1 5/6/1 7/7/1 8/8/1
f 4/9/2 2/10/2 5/11/2 6/12/2
f 10/13/1 9/14/1 11/15/1 12/16/1
f 13/17/3 14/18/3 18/19/3 17/20/3 16/21/3 15/22/3
f 12/16/4 11/15/4 17/23/4 18/24/4
f 19/25/5 20/26/5 21/27/5 22/28/5 23/29/5 24/30/5
f 1/31/6 3/2/6 24/32/6 23/33/6
f 7/34/7 9/35/7 10/36/7 8/37/7
f 27/38/5 25/39/5 29/40/5 31/41/5
f 3/2/1 1/31/1 25/42/1 27/3/1
f 2/43/1 4/1/1 28/4/1 26/44/1
f 1/31/1 2/43/1 26/44/1 25/42/1
f 29/45/1 30/46/1 32/47/1 31/48/1
f 26/49/8 28/50/8 32/51/8 30/52/8
f 25/53/9 26/54/9 30/55/9 29/56/9
f 28/57/10 27/58/10 31/59/10 32/60/10
f 36/61/11 35/62/11 59/63/11 60/64/11
f 38/65/11 37/66/11 39/67/11 40/68/11
f 36/69/12 34/70/12 37/71/12 38/72/12
f 42/73/11 41/74/11 43/75/11 44/76/11
f 45/77/3 46/78/3 50/79/3 49/80/3 48/81/3 47/82/3
f 44/76/13 43/75/13 49/83/13 50/84/13
f 51/85/5 52/86/5 53/87/5 54/88/5 55/89/5 56/90/5
f 33/91/14 35/62/14 56/92/14 55/93/14
f 39/94/15 41/95/15 42/96/15 40/97/15
f 59/98/5 57/99/5 61/100/5 63/101/5
f 35/62/11 33/91/11 57/102/11 59/63/11
f 34/103/11 36/61/11 60/64/11 58/104/11
f 33/91/11 34/103/11 58/104/11 57/102/11
f 61/105/11 62/106/11 64/107/11 63/108/11
f 58/109/16 60/110/16 64/111/16 62/112/16
f 57/113/17 58/114/17 62/115/17 61/116/17
f 60/117/18 59/118/18 63/119/18 64/120/18
f 68/121/19 67/122/19 91/123/19 92/124/19
f 70/125/19 69/126/19 71/127/19 72/128/19
f 68/129/20 66/130/20 69/131/20 70/132/20
f 74/133/19 73/134/19 75/135/19 76/136/19
f 77/137/3 78/138/3 82/139/3 81/140/3 80/141/3 79/142/3
f 76/136/21 75/135/21 81/143/21 82/144/21
f 83/145/5 84/146/5 85/147/5 86/148/5 87/149/5 88/150/5
f 65/151/22 67/122/22 88/152/22 87/153/22
f 71/154/23 73/155/23 74/156/23 72/157/23
f 91/158/5 89/159/5 93/160/5 95/161/5
f 67/122/19 65/151/19 89/162/19 91/123/19
f 66/163/19 68/121/19 92/124/19 90/164/19
f 65/151/19 66/163/19 90/164/19 89/162/19
f 93/165/19 94/166/19 96/167/19 95/168/19
f 90/169/24 92/170/24 96/171/24 94/172/24
f 89/173/25 90/174/25 94/175/25 93/176/25
f 92/177/26 91/178/26 95/179/26 96/180/26
f 100/181/27 99/182/27 123/183/27 124/184/27
f 102/185/27 101/186/27 103/187/27 104/188/27
f 100/189/28 98/190/28 101/191/28 102/192/28
f 106/193/27 105/194/27 107/195/27 108/196/27
f 109/197/3 110/198/3 114/199/3 113/200/3 112/201/3 111/202/3
f 108/196/29 107/195/29 113/203/29 114/204/29
f 115/205/5 116/206/5 117/207/5 118/208/5 119/209/5 120/210/5
f 97/211/30 99/182/30 120/212/30 119/213/30
f 103/214/31 105/215/31 106/216/31 104/217/31
f 123/218/5 121/219/5 125/220/5 127/221/5
f 99/182/27 97/211/27 121/222/27 123/183/27
f 98/223/27 100/181/27 124/184/27 122/224/27
f 97/211/27 98/223/27 122/224/27 121/222/27
f 125/225/27 126/226/27 128/227/27 127/228/27
f 122/229/32 124/230/32 128/231/32 126/232/32
f 121/233/10 122/234/10 126/235/10 125/236/10
f 124/237/9 123/238/9 127/239/9 128/240/9
f 132/241/33 131/242/33 155/243/33 156/244/33
f 134/245/33 133/246/33 135/247/33 136/248/33
f 132/249/34 130/250/34 133/251/34 134/252/34
f 138/253/33 137/254/33 139/255/33 140/256/33
f 141/257/3 142/258/3 146/259/3 145/260/3 144/261/3 143/262/3
f 140/256/35 139/255/35 145/263/35 146/264/35
f 147/265/5 148/266/5 149/267/5 150/268/5 151/269/5 152/270/5
f 129/271/36 131/242/36 152/272/36 151/273/36
f 135/274/37 137/275/37 138/276/37 136/277/37
f 155/278/5 153/279/5 157/280/5 159/281/5
f 131/242/33 129/271/33 153/282/33 155/243/33
f 130/283/33 132/241/33 156/244/33 154/284/33
f 129/271/33 130/283/33 154/284/33 153/282/33
f 157/285/33 158/286/33 160/287/33 159/288/33
f 154/289/38 156/290/38 160/291/38 158/292/38
f 153/293/18 154/294/18 158/295/18 157/296/18
f 156/297/17 155/298/17 159/299/17 160/300/17
f 164/301/39 163/302/39 187/303/39 188/304/39
f 166/305/39 165/306/39 167/307/39 168/308/39
f 164/309/40 162/310/40 165/311/40 166/312/40
f 170/313/39 169/314/39 171/315/39 172/316/39
f 173/317/3 174/318/3 178/319/3 177/320/3 176/321/3 175/322/3
f 172/316/41 171/315/41 177/323/41 178/324/41
f 179/325/5 180/326/5 181/327/5 182/328/5 183/329/5 184/330/5
f 161/331/42 163/302/42 184/332/42 183/333/42
f 167/334/43 169/335/43 170/336/43 168/337/43
f 187/338/5 185/339/5 189/340/5 191/341/5
f 163/302/39 161/331/39 185/342/39 187/303/39
f 162/343/39 164/301/39 188/304/39 186/344/39
f 161/331/39 162/343/39 186/344/39 185/342/39
f 189/345/39 190/346/39 192/347/39 191/348/39
f 186/349/44 188/350/44 192/351/44 190/352/44
f 185/353/26 186/354/26 190/355/26 189/356/26
f 188/357/25 187/358/25 191/359/25 192/360/25
