# Blender v2.80 (sub 75) OBJ File: 'xic_prospector.blend'
# www.blender.org
mtllib xic_prospector.mtl
o main_Cube.001
v 0.500567 0.034198 0.476072
v 1.029642 0.034790 0.210094
v -0.720706 0.053105 1.040669
v -0.014171 0.100830 0.571188
v 0.057330 0.166286 0.376047
v 0.987499 0.034743 0.231280
v -0.449634 0.225368 0.485663
v -0.470756 0.095621 0.812166
v 0.581504 0.034289 0.435384
v -0.007440 0.126221 0.584651
v -0.464025 0.121011 0.825629
v 0.064062 0.191677 0.389510
v -0.442903 0.250758 0.499126
v -0.720706 0.312891 0.408073
v -1.016826 0.226964 0.234568
v -0.720706 0.118256 0.882023
v 0.307879 0.210334 0.143514
v 0.741122 0.138171 0.102614
v 0.351616 0.242905 0.132277
v 0.682034 0.182770 0.091376
v -0.720706 0.379709 0.245367
v -0.720706 0.001659 1.107044
v -0.821289 0.001659 1.088450
v 0.503112 0.001659 0.554036
v 1.123634 0.001659 0.243775
v 0.500567 -0.030881 0.476072
v 1.029642 -0.031473 0.210094
v -0.466949 0.001659 1.039067
v -0.720706 -0.049788 1.040669
v -0.014171 -0.097513 0.571188
v 0.057330 -0.162969 0.376047
v 0.987499 -0.031426 0.231280
v -0.449634 -0.222051 0.485663
v 1.036863 0.001659 0.205296
v -0.470756 -0.092304 0.812166
v 0.581504 -0.030972 0.435384
v 0.529564 0.001659 0.458946
v -0.007440 -0.122904 0.584651
v -0.464025 -0.117694 0.825629
v 0.064062 -0.188360 0.389510
v -0.442903 -0.247441 0.499126
v -0.720706 -0.309574 0.408073
v -1.016826 -0.223647 0.234568
v -0.720706 -0.114939 0.882023
v -0.893945 0.001659 0.771169
v 0.322518 -0.178362 0.263063
v 0.755761 -0.106200 0.153985
v 0.302260 -0.161060 0.203169
v 0.735503 -0.113661 0.091376
v -0.720706 -0.321699 0.245367
v 0.524103 0.034225 0.464241
v -0.720706 0.443568 0.000000
v -1.070542 0.237976 0.000000
v 0.500567 0.034198 -0.476072
v 1.029642 0.034790 -0.210094
v -0.720706 0.053105 -1.040669
v -0.014171 0.100830 -0.571188
v 0.057330 0.166286 -0.376047
v 0.987499 0.034743 -0.231280
v -0.449634 0.225368 -0.485663
v -0.470756 0.095621 -0.812166
v 0.581504 0.034289 -0.435384
v -0.007440 0.126221 -0.584651
v -0.464025 0.121011 -0.825629
v 0.064062 0.191677 -0.389510
v -0.442903 0.250758 -0.499126
v -0.720706 0.312891 -0.408073
v -1.016826 0.226964 -0.234568
v -0.720706 0.118256 -0.882023
v 0.269441 0.277163 0.000000
v 0.744903 0.179535 0.000000
v 0.307879 0.210334 -0.143514
v 0.741122 0.138171 -0.102614
v 0.322301 0.301188 0.000000
v 0.684918 0.223240 0.000000
v 0.351616 0.242905 -0.132277
v 0.682034 0.182770 -0.091376
v -0.720706 0.379709 -0.245367
v -0.456312 0.426184 0.000000
v -0.879753 0.370226 0.000000
v -0.720706 0.001659 -1.107044
v -0.821289 0.001659 -1.088450
v -0.720706 -0.342026 0.000000
v -1.070542 -0.234659 0.000000
v 1.611185 0.001659 0.000000
v -0.727139 0.001659 0.000000
v -0.727139 0.001659 0.000000
v 0.503112 0.001659 -0.554036
v 1.123634 0.001659 -0.243775
v 0.500567 -0.030881 -0.476072
v 1.029642 -0.031473 -0.210094
v -0.466949 0.001659 -1.039067
v -0.720706 -0.049788 -1.040669
v -0.014171 -0.097513 -0.571188
v 0.057330 -0.162969 -0.376047
v 0.987499 -0.031426 -0.231280
v -0.449634 -0.222051 -0.485663
v 1.036863 0.001659 -0.205296
v -0.470756 -0.092304 -0.812166
v 0.581504 -0.030972 -0.435384
v 0.529564 0.001659 -0.458946
v -0.007440 -0.122904 -0.584651
v -0.464025 -0.117694 -0.825629
v 0.064062 -0.188360 -0.389510
v -0.442903 -0.247441 -0.499126
v -0.720706 -0.309574 -0.408073
v -1.016826 -0.223647 -0.234568
v -0.720706 -0.114939 -0.882023
v -0.893945 0.001659 -0.771169
v 0.269441 -0.273846 0.000000
v 0.744903 -0.127238 0.000000
v 0.322518 -0.178362 -0.263063
v 0.755761 -0.106200 -0.153985
v 0.263822 -0.143614 0.000000
v 0.739284 -0.101377 0.000000
v 0.302260 -0.161060 -0.203169
v 0.735503 -0.113661 -0.091376
v -0.720706 -0.321699 -0.245367
v -0.456312 -0.323360 0.000000
v -0.879753 -0.323513 0.000000
v 0.524103 0.034225 -0.464241
vt 0.935881 0.004589
vt 0.935881 0.090699
vt 0.907441 0.010218
vt 0.529911 0.940357
vt 0.501190 0.936402
vt 0.529911 0.906829
vt 0.923192 0.965785
vt 0.891621 0.873266
vt 0.896881 0.798966
vt 0.890566 0.730419
vt 0.917467 0.637713
vt 0.923192 0.637713
vt 0.642519 0.832085
vt 0.693500 0.670708
vt 0.757893 0.637713
vt 0.757893 0.809147
vt 0.121525 0.917536
vt 0.121525 0.952513
vt 0.117477 0.967435
vt 0.110342 0.946571
vt 0.592056 0.004589
vt 0.633342 0.078980
vt 0.633315 0.433328
vt 0.607198 0.443974
vt 0.607123 0.473571
vt 0.610089 0.325135
vt 0.606747 0.622035
vt 0.606682 0.638764
vt 0.633342 0.661434
vt 0.633081 0.840207
vt 0.501190 0.329055
vt 0.553730 0.279651
vt 0.557924 0.111015
vt 0.802753 0.947954
vt 0.761998 0.941748
vt 0.738583 0.889358
vt 0.802753 0.841263
vt 0.557972 0.934311
vt 0.729406 0.934311
vt 0.729406 0.944977
vt 0.557972 0.944977
vt 0.975567 0.845516
vt 0.963239 0.827235
vt 0.963414 0.657228
vt 0.971331 0.637713
vt 0.975567 0.659606
vt 0.188625 0.956771
vt 0.200780 0.938077
vt 0.200780 0.967771
vt 0.006533 0.047004
vt 0.097350 0.010172
vt 0.097350 0.181607
vt 0.097350 0.238992
vt 0.013609 0.164422
vt 0.611442 0.917496
vt 0.539089 0.917496
vt 0.539089 0.906829
vt 0.611442 0.906829
vt 0.945058 0.122220
vt 0.945058 0.004589
vt 0.955725 0.004589
vt 0.955725 0.122220
vt 0.984745 0.806951
vt 0.984745 0.637713
vt 0.995411 0.637713
vt 0.995411 0.806951
vt 0.501190 0.897652
vt 0.511858 0.849385
vt 0.623154 0.854343
vt 0.623154 0.887887
vt 0.004589 0.891967
vt 0.062102 0.790123
vt 0.101165 0.834144
vt 0.101165 0.930055
vt 0.030442 0.966601
vt 0.856608 0.601801
vt 0.781003 0.628536
vt 0.754153 0.459217
vt 0.856608 0.402800
vt 0.947227 0.796518
vt 0.947227 0.941670
vt 0.933284 0.919985
vt 0.932370 0.808582
vt 0.332037 0.876313
vt 0.332037 0.913329
vt 0.307258 0.919458
vt 0.308116 0.885925
vt 0.298080 0.876426
vt 0.298080 0.931118
vt 0.279716 0.925731
vt 0.278580 0.876313
vt 0.729406 0.925133
vt 0.642519 0.843099
vt 0.729406 0.841263
vt 0.410556 0.849608
vt 0.410556 0.945519
vt 0.359536 0.878951
vt 0.956623 0.341339
vt 0.956623 0.370330
vt 0.872152 0.358060
vt 0.907441 0.123928
vt 0.930799 0.099876
vt 0.930799 0.141101
vt 0.885980 0.446376
vt 0.885980 0.000196
vt 0.898263 0.004589
vt 0.898263 0.147479
vt 0.820999 0.131082
vt 0.642519 0.043069
vt 0.767070 0.637713
vt 0.882443 0.660652
vt 0.882443 0.832085
vt 0.818051 0.799090
vt 0.141885 0.967435
vt 0.130702 0.938400
vt 0.137836 0.917536
vt 0.141885 0.932458
vt 0.450613 0.840430
vt 0.416401 0.733724
vt 0.412209 0.564649
vt 0.359536 0.515113
vt 0.491342 0.004589
vt 0.491577 0.183148
vt 0.464945 0.205788
vt 0.465390 0.221378
vt 0.465755 0.370229
vt 0.465828 0.399903
vt 0.492013 0.410579
vt 0.492013 0.765848
vt 0.876100 0.841263
vt 0.876100 0.947954
vt 0.811930 0.899859
vt 0.835345 0.847469
vt 0.969003 0.156656
vt 0.979670 0.156656
vt 0.979670 0.328089
vt 0.969003 0.328089
vt 0.978110 0.399716
vt 0.978110 0.585627
vt 0.965936 0.566946
vt 0.965780 0.417997
vt 0.332824 0.939635
vt 0.344979 0.928635
vt 0.344979 0.958329
vt 0.865786 0.591704
vt 0.872862 0.474286
vt 0.956603 0.399716
vt 0.956603 0.457101
vt 0.956603 0.628536
vt 0.963239 0.854694
vt 0.973905 0.854694
vt 0.973905 0.927047
vt 0.963239 0.927047
vt 0.484759 0.967239
vt 0.474092 0.967239
vt 0.474092 0.849608
vt 0.484759 0.849608
vt 0.995411 0.985366
vt 0.984745 0.985366
vt 0.984745 0.816128
vt 0.995411 0.816128
vt 0.342865 0.867135
vt 0.188625 0.839812
vt 0.195573 0.810295
vt 0.342865 0.799047
vt 0.872152 0.231310
vt 0.897948 0.156656
vt 0.959826 0.190968
vt 0.959826 0.286816
vt 0.931389 0.332161
vt 0.744975 0.429535
vt 0.744975 0.628536
vt 0.642519 0.572119
vt 0.669370 0.402800
vt 0.954061 0.786601
vt 0.932370 0.787341
vt 0.932397 0.639620
vt 0.954061 0.637713
vt 0.872152 0.388727
vt 0.893328 0.383769
vt 0.923351 0.379508
vt 0.923351 0.389315
vt 0.464914 0.944490
vt 0.419734 0.926744
vt 0.450985 0.866252
vt 0.464914 0.849608
vt 0.169743 0.908359
vt 0.110342 0.853610
vt 0.169743 0.790123
vt 0.269402 0.876313
vt 0.269402 0.928900
vt 0.188625 0.927907
vt 0.032524 0.775291
vt 0.004589 0.681355
vt 0.044055 0.514526
vt 0.179447 0.004589
vt 0.179447 0.296167
vt 0.142502 0.293873
vt 0.127777 0.438276
vt 0.179448 0.456202
vt 0.179448 0.700481
vt 0.091105 0.780946
vt 0.167451 0.917536
vt 0.167451 0.945832
vt 0.151062 0.917937
vt 0.323646 0.956931
vt 0.307258 0.956530
vt 0.323646 0.928635
vt 0.303835 0.789870
vt 0.251421 0.779031
vt 0.188625 0.678849
vt 0.230526 0.443953
vt 0.325344 0.440439
vt 0.331184 0.291663
vt 0.280562 0.283980
vt 0.350359 0.004589
vt 0.348625 0.532190
vt 0.350359 0.703615
vt 0.935881 0.004589
vt 0.907441 0.010218
vt 0.935881 0.090699
vt 0.529911 0.940357
vt 0.529911 0.906829
vt 0.501190 0.936402
vt 0.923192 0.965785
vt 0.896881 0.798966
vt 0.891621 0.873266
vt 0.642519 0.832085
vt 0.757893 0.809147
vt 0.757893 0.637713
vt 0.693500 0.670708
vt 0.121525 0.917536
vt 0.110342 0.946571
vt 0.117477 0.967435
vt 0.121525 0.952513
vt 0.592056 0.004589
vt 0.557924 0.111015
vt 0.553730 0.279651
vt 0.501190 0.329055
vt 0.633342 0.661434
vt 0.606682 0.638764
vt 0.606747 0.622035
vt 0.610089 0.325135
vt 0.607123 0.473571
vt 0.607198 0.443974
vt 0.633315 0.433328
vt 0.633342 0.078980
vt 0.802753 0.947954
vt 0.802753 0.841263
vt 0.738583 0.889358
vt 0.761998 0.941748
vt 0.557972 0.934311
vt 0.557972 0.944977
vt 0.729406 0.944977
vt 0.729406 0.934311
vt 0.975567 0.845516
vt 0.975567 0.659606
vt 0.971331 0.637713
vt 0.963414 0.657228
vt 0.963239 0.827235
vt 0.188625 0.956771
vt 0.200780 0.967771
vt 0.200780 0.938077
vt 0.006533 0.047004
vt 0.013609 0.164422
vt 0.097350 0.238992
vt 0.097350 0.181607
vt 0.097350 0.010172
vt 0.611442 0.917496
vt 0.611442 0.906829
vt 0.539089 0.906829
vt 0.539089 0.917496
vt 0.945058 0.122220
vt 0.955725 0.122220
vt 0.955725 0.004589
vt 0.945058 0.004589
vt 0.984745 0.806951
vt 0.995411 0.806951
vt 0.995411 0.637713
vt 0.984745 0.637713
vt 0.623154 0.854343
vt 0.511858 0.849385
vt 0.004589 0.891967
vt 0.101165 0.834144
vt 0.062102 0.790123
vt 0.856608 0.601801
vt 0.856608 0.402800
vt 0.754153 0.459217
vt 0.781003 0.628536
vt 0.947227 0.796518
vt 0.932370 0.808582
vt 0.933284 0.919985
vt 0.947227 0.941670
vt 0.332037 0.876313
vt 0.308116 0.885925
vt 0.279716 0.925731
vt 0.298080 0.931118
vt 0.729406 0.925133
vt 0.410556 0.945519
vt 0.956623 0.341339
vt 0.872152 0.358060
vt 0.956623 0.370330
vt 0.907441 0.123928
vt 0.930799 0.141101
vt 0.930799 0.099876
vt 0.885980 0.446376
vt 0.642519 0.043069
vt 0.820999 0.131082
vt 0.767070 0.637713
vt 0.818051 0.799090
vt 0.882443 0.832085
vt 0.882443 0.660652
vt 0.141885 0.967435
vt 0.141885 0.932458
vt 0.137836 0.917536
vt 0.130702 0.938400
vt 0.450613 0.840430
vt 0.492013 0.765848
vt 0.492013 0.410579
vt 0.465828 0.399903
vt 0.465755 0.370229
vt 0.465390 0.221378
vt 0.464945 0.205788
vt 0.491577 0.183148
vt 0.359536 0.515113
vt 0.412209 0.564649
vt 0.416401 0.733724
vt 0.876100 0.841263
vt 0.835345 0.847469
vt 0.811930 0.899859
vt 0.876100 0.947954
vt 0.969003 0.156656
vt 0.969003 0.328089
vt 0.979670 0.328089
vt 0.979670 0.156656
vt 0.978110 0.399716
vt 0.965780 0.417997
vt 0.965936 0.566946
vt 0.978110 0.585627
vt 0.332824 0.939635
vt 0.344979 0.958329
vt 0.344979 0.928635
vt 0.865786 0.591704
vt 0.956603 0.628536
vt 0.956603 0.457101
vt 0.956603 0.399716
vt 0.872862 0.474286
vt 0.963239 0.854694
vt 0.963239 0.927047
vt 0.973905 0.927047
vt 0.973905 0.854694
vt 0.484759 0.967239
vt 0.484759 0.849608
vt 0.474092 0.849608
vt 0.474092 0.967239
vt 0.995411 0.985366
vt 0.995411 0.816128
vt 0.984745 0.816128
vt 0.984745 0.985366
vt 0.342865 0.799047
vt 0.195573 0.810295
vt 0.872152 0.231310
vt 0.931389 0.332161
vt 0.959826 0.286816
vt 0.744975 0.429535
vt 0.669370 0.402800
vt 0.642519 0.572119
vt 0.744975 0.628536
vt 0.954061 0.786601
vt 0.954061 0.637713
vt 0.932397 0.639620
vt 0.932370 0.787341
vt 0.872152 0.388727
vt 0.893328 0.383769
vt 0.464914 0.849608
vt 0.450985 0.866252
vt 0.169743 0.908359
vt 0.188625 0.927907
vt 0.032524 0.775291
vt 0.091105 0.780946
vt 0.127777 0.438276
vt 0.142502 0.293873
vt 0.044055 0.514526
vt 0.004589 0.681355
vt 0.167451 0.917536
vt 0.151062 0.917937
vt 0.167451 0.945832
vt 0.323646 0.956931
vt 0.323646 0.928635
vt 0.307258 0.956530
vt 0.303835 0.789870
vt 0.350359 0.703615
vt 0.348625 0.532190
vt 0.331184 0.291663
vt 0.325344 0.440439
vt 0.251421 0.779031
vn 0.1619 0.7799 0.6045
vn -0.1125 0.7854 0.6087
vn -0.5216 -0.8507 -0.0653
vn 0.1866 0.9088 0.3732
vn -0.1310 -0.1700 0.9767
vn -0.5452 0.8153 0.1948
vn -0.1291 0.4910 -0.8615
vn 0.4475 -0.0505 0.8928
vn 0.4481 -0.0698 0.8912
vn 0.9100 -0.3549 0.2144
vn -0.9702 0.2400 0.0326
vn 0.4061 -0.5098 0.7584
vn 0.2024 0.9045 0.3755
vn -0.4806 0.8381 0.2581
vn -0.5499 0.7455 0.3767
vn 0.1534 0.3043 0.9401
vn 0.5384 0.7697 0.3432
vn -0.4090 0.7891 0.4584
vn 0.0635 0.9658 0.2514
vn -0.4075 0.8838 0.2300
vn 0.1619 -0.7799 0.6045
vn -0.1125 -0.7854 0.6087
vn -0.5216 0.8507 -0.0653
vn 0.1866 -0.9088 0.3732
vn -0.1310 0.1700 0.9767
vn -0.5452 -0.8153 0.1948
vn -0.1291 -0.4910 -0.8615
vn 0.4475 0.0505 0.8928
vn 0.4481 0.0698 0.8912
vn 0.9100 0.3549 0.2144
vn -0.9702 -0.2400 0.0326
vn 0.4061 0.5098 0.7584
vn 0.0842 -0.9904 -0.1099
vn -0.3449 -0.9265 0.1504
vn -0.5499 -0.7455 0.3767
vn 0.1070 -0.9876 -0.1147
vn -0.6501 -0.7584 0.0458
vn 0.9747 0.0873 -0.2059
vn 0.0702 -0.9941 0.0824
vn -0.1152 -0.9899 0.0820
vn 0.7828 0.5829 0.2177
vn 0.7828 -0.5829 0.2177
vn 0.1402 -0.9568 0.2546
vn 0.1619 0.7799 -0.6045
vn -0.1125 0.7854 -0.6087
vn -0.5216 -0.8507 0.0653
vn 0.1866 0.9088 -0.3732
vn -0.1310 -0.1700 -0.9767
vn -0.5452 0.8153 -0.1948
vn -0.1291 0.4910 0.8615
vn 0.4475 -0.0505 -0.8928
vn 0.4481 -0.0698 -0.8912
vn 0.9100 -0.3549 -0.2144
vn -0.9702 0.2400 -0.0326
vn 0.4061 -0.5098 -0.7584
vn 0.2024 0.9045 -0.3755
vn -0.4806 0.8381 -0.2581
vn -0.5499 0.7455 -0.3767
vn 0.1534 0.3043 -0.9401
vn 0.5384 0.7697 -0.3432
vn -0.4090 0.7891 -0.4584
vn 0.0635 0.9658 -0.2514
vn -0.4075 0.8838 -0.2300
vn 0.1619 -0.7799 -0.6045
vn -0.1125 -0.7854 -0.6087
vn -0.5216 0.8507 0.0653
vn 0.1866 -0.9088 -0.3732
vn -0.1310 0.1700 -0.9767
vn -0.5452 -0.8153 -0.1948
vn -0.1291 -0.4910 0.8615
vn 0.4475 0.0505 -0.8928
vn 0.4481 0.0698 -0.8912
vn 0.9100 0.3549 -0.2144
vn -0.9702 -0.2400 -0.0326
vn 0.4061 0.5098 -0.7584
vn 0.0842 -0.9904 0.1099
vn -0.3449 -0.9265 -0.1504
vn -0.5499 -0.7455 -0.3767
vn 0.1070 -0.9876 0.1147
vn -0.6501 -0.7584 -0.0458
vn 0.9747 0.0873 0.2059
vn 0.0702 -0.9941 -0.0824
vn -0.1152 -0.9899 -0.0820
vn 0.7828 0.5829 -0.2177
vn 0.7828 -0.5829 -0.2177
vn 0.1402 -0.9568 -0.2546
usemtl Material.001
s off
f 22/1/1 28/2/1 3/3/1
f 22/4/2 3/5/2 23/6/2
f 23/7/3 45/8/3 15/9/3 53/10/3 87/11/3 86/12/3
f 11/13/4 10/14/4 12/15/4 13/16/4
f 25/17/5 2/18/5 6/19/5 34/20/5
f 3/21/4 28/22/4 24/23/4 1/24/4 9/25/4 51/26/4 6/27/4 2/28/4 25/29/4 85/30/4 5/31/4 4/32/4 8/33/4
f 23/34/6 3/35/6 16/36/6 45/37/6
f 5/38/7 7/39/7 13/40/7 12/41/7
f 34/42/8 6/43/8 51/44/8 9/45/8 37/46/8
f 37/47/9 9/48/9 1/49/9
f 7/50/4 14/51/4 16/52/4 3/53/4 8/54/4
f 4/55/10 5/56/10 12/57/10 10/58/10
f 7/59/11 8/60/11 11/61/11 13/62/11
f 8/63/12 4/64/12 10/65/12 11/66/12
f 74/67/13 19/68/13 20/69/13 75/70/13
f 15/71/14 14/72/14 21/73/14 80/74/14 53/75/14
f 45/76/15 16/77/15 14/78/15 15/79/15
f 17/80/16 18/81/16 20/82/16 19/83/16
f 18/84/17 71/85/17 75/86/17 20/87/17
f 70/88/18 17/89/18 19/90/18 74/91/18
f 21/92/19 79/93/19 52/94/19
f 80/95/20 21/96/20 52/97/20
f 22/98/21 29/99/21 28/100/21
f 22/101/22 23/102/22 29/103/22
f 23/104/23 86/105/23 87/106/23 84/107/23 43/108/23 45/109/23
f 39/110/24 41/111/24 40/112/24 38/113/24
f 25/114/25 34/115/25 32/116/25 27/117/25
f 29/118/24 35/119/24 30/120/24 31/121/24 85/122/24 25/123/24 27/124/24 32/125/24 36/126/24 26/127/24 24/128/24 28/129/24
f 23/130/26 45/131/26 44/132/26 29/133/26
f 31/134/27 40/135/27 41/136/27 33/137/27
f 34/138/28 37/139/28 36/140/28 32/141/28
f 37/142/29 26/143/29 36/144/29
f 33/145/24 35/146/24 29/147/24 44/148/24 42/149/24
f 30/150/30 38/151/30 40/152/30 31/153/30
f 33/154/31 41/155/31 39/156/31 35/157/31
f 35/158/32 39/159/32 38/160/32 30/161/32
f 114/162/33 115/163/33 49/164/33 48/165/33
f 43/166/34 84/167/34 120/168/34 50/169/34 42/170/34
f 45/171/35 43/172/35 42/173/35 44/174/35
f 46/175/36 48/176/36 49/177/36 47/178/36
f 47/179/37 49/180/37 115/181/37 111/182/37
f 110/183/38 114/184/38 48/185/38 46/186/38
f 50/187/39 83/188/39 119/189/39
f 120/190/40 83/191/40 50/192/40
f 14/193/4 7/194/4 5/195/4 85/196/4 71/197/4 18/198/4 17/199/4 70/200/4 79/201/4 21/202/4
f 1/203/41 24/204/41 37/205/41
f 26/206/42 37/207/42 24/208/42
f 42/209/43 50/210/43 119/211/43 110/212/43 46/213/43 47/214/43 111/215/43 85/216/43 31/217/43 33/218/43
f 81/219/44 56/220/44 92/221/44
f 81/222/45 82/223/45 56/224/45
f 82/225/46 86/12/46 87/11/46 53/10/46 68/226/46 109/227/46
f 64/228/47 66/229/47 65/230/47 63/231/47
f 89/232/48 98/233/48 59/234/48 55/235/48
f 56/236/47 61/237/47 57/238/47 58/239/47 85/30/47 89/240/47 55/241/47 59/242/47 121/243/47 62/244/47 54/245/47 88/246/47 92/247/47
f 82/248/49 109/249/49 69/250/49 56/251/49
f 58/252/50 65/253/50 66/254/50 60/255/50
f 98/256/51 101/257/51 62/258/51 121/259/51 59/260/51
f 101/261/52 54/262/52 62/263/52
f 60/264/47 61/265/47 56/266/47 69/267/47 67/268/47
f 57/269/53 63/270/53 65/271/53 58/272/53
f 60/273/54 66/274/54 64/275/54 61/276/54
f 61/277/55 64/278/55 63/279/55 57/280/55
f 74/67/56 75/70/56 77/281/56 76/282/56
f 68/283/57 53/75/57 80/74/57 78/284/57 67/285/57
f 109/286/58 68/287/58 67/288/58 69/289/58
f 72/290/59 76/291/59 77/292/59 73/293/59
f 73/294/60 77/295/60 75/86/60 71/85/60
f 70/88/61 74/91/61 76/296/61 72/297/61
f 78/298/62 52/94/62 79/93/62
f 80/95/63 52/97/63 78/299/63
f 81/300/64 92/301/64 93/302/64
f 81/303/65 93/304/65 82/305/65
f 82/306/66 109/307/66 107/308/66 84/107/66 87/106/66 86/105/66
f 103/309/67 102/310/67 104/311/67 105/312/67
f 89/313/68 91/314/68 96/315/68 98/316/68
f 93/317/67 92/318/67 88/319/67 90/320/67 100/321/67 96/322/67 91/323/67 89/324/67 85/122/67 95/325/67 94/326/67 99/327/67
f 82/328/69 93/329/69 108/330/69 109/331/69
f 95/332/70 97/333/70 105/334/70 104/335/70
f 98/336/71 96/337/71 100/338/71 101/339/71
f 101/340/72 100/341/72 90/342/72
f 97/343/67 106/344/67 108/345/67 93/346/67 99/347/67
f 94/348/73 95/349/73 104/350/73 102/351/73
f 97/352/74 99/353/74 103/354/74 105/355/74
f 99/356/75 94/357/75 102/358/75 103/359/75
f 114/162/76 116/360/76 117/361/76 115/163/76
f 107/362/77 106/363/77 118/364/77 120/168/77 84/167/77
f 109/365/78 108/366/78 106/367/78 107/368/78
f 112/369/79 113/370/79 117/371/79 116/372/79
f 113/373/80 111/182/80 115/181/80 117/374/80
f 110/183/81 112/375/81 116/376/81 114/184/81
f 118/377/82 119/189/82 83/188/82
f 120/190/83 118/378/83 83/191/83
f 67/379/47 78/380/47 79/201/47 70/200/47 72/381/47 73/382/47 71/197/47 85/196/47 58/383/47 60/384/47
f 54/385/84 101/386/84 88/387/84
f 90/388/85 88/389/85 101/390/85
f 106/391/86 97/392/86 95/393/86 85/216/86 111/215/86 113/394/86 112/395/86 110/212/86 119/211/86 118/396/86
