# Blender v2.80 (sub 75) OBJ File: 'xic_prospector_ma.blend'
# www.blender.org
mtllib xic_prospector_ma.mtl
o main_Cube.001
v 0.346568 0.048232 0.431974
v 0.826628 0.048842 0.190636
v -0.761565 0.067725 0.944266
v -0.120485 0.116931 0.518278
v -0.055607 0.184418 0.341215
v 0.788389 0.048793 0.209860
v -0.515606 0.245333 0.440676
v -0.534771 0.111560 0.736932
v 0.420006 0.048325 0.395055
v -0.114377 0.143110 0.530494
v -0.528663 0.137738 0.749148
v -0.049499 0.210597 0.353431
v -0.509498 0.271512 0.452892
v -0.761565 0.335572 0.370274
v -1.030252 0.246979 0.212843
v -0.761565 0.134898 0.800317
v 0.171730 0.229833 0.130225
v 0.564837 0.155431 0.093113
v 0.211416 0.263414 0.120028
v 0.511224 0.189012 0.082917
v -0.761565 0.404464 0.222641
v -0.761565 0.014682 1.004491
v -0.852829 0.014682 0.987620
v 0.348877 0.014682 0.502715
v 0.911913 0.014682 0.221197
v 0.346568 -0.018867 0.431974
v 0.826628 -0.019477 0.190636
v -0.531317 0.014682 0.942812
v -0.761565 -0.038361 0.944266
v -0.120485 -0.087567 0.518278
v -0.055607 -0.155054 0.341215
v 0.788389 -0.019429 0.209860
v -0.515606 -0.215968 0.440676
v 0.833180 0.014682 0.186283
v -0.534771 -0.082195 0.736932
v 0.420006 -0.018960 0.395055
v 0.372878 0.014682 0.416434
v -0.114377 -0.113745 0.530494
v -0.528663 -0.108374 0.749148
v -0.049499 -0.181232 0.353431
v -0.509498 -0.242147 0.452892
v -0.761565 -0.306208 0.370274
v -1.030252 -0.217614 0.212843
v -0.761565 -0.105533 0.800317
v -0.918755 0.014682 0.699732
v 0.185013 -0.170924 0.238698
v 0.578120 -0.096523 0.139725
v 0.166632 -0.153085 0.184353
v 0.559739 -0.104215 0.082917
v -0.761565 -0.318709 0.222641
v -0.761565 0.470304 0.000006
v -1.078991 0.258332 0.000006
v 0.346568 0.048232 -0.431962
v 0.826628 0.048842 -0.190624
v -0.761565 0.067725 -0.944254
v -0.120485 0.116931 -0.518266
v -0.055607 0.184418 -0.341204
v 0.788389 0.048793 -0.209848
v -0.515606 0.245333 -0.440664
v -0.534771 0.111560 -0.736920
v 0.420006 0.048325 -0.395043
v -0.114377 0.143110 -0.530482
v -0.528663 0.137738 -0.749136
v -0.049499 0.210597 -0.353420
v -0.509498 0.271512 -0.452880
v -0.761565 0.335572 -0.370263
v -1.030252 0.246979 -0.212832
v -0.761565 0.134898 -0.800305
v 0.136853 0.298736 0.000006
v 0.568268 0.198078 0.000006
v 0.171730 0.229833 -0.130213
v 0.564837 0.155431 -0.093101
v 0.184816 0.332317 0.000006
v 0.513840 0.231659 0.000006
v 0.211416 0.263414 -0.120017
v 0.511224 0.189012 -0.082905
v -0.761565 0.404464 -0.222630
v -0.521664 0.452381 0.000006
v -0.905878 0.394686 0.000006
v -0.761565 0.014682 -1.004480
v -0.852829 0.014682 -0.987608
v -0.761565 -0.339667 0.000006
v -1.078991 -0.228968 0.000006
v 1.354296 0.014682 0.000006
v -0.767402 0.014682 0.000006
v -0.767402 0.014682 0.000006
v 0.348877 0.014682 -0.502704
v 0.911913 0.014682 -0.221186
v 0.346568 -0.018867 -0.431962
v 0.826628 -0.019477 -0.190624
v -0.531317 0.014682 -0.942801
v -0.761565 -0.038361 -0.944254
v -0.120485 -0.087567 -0.518266
v -0.055607 -0.155054 -0.341204
v 0.788389 -0.019429 -0.209848
v -0.515606 -0.215968 -0.440664
v 0.833180 0.014682 -0.186271
v -0.534771 -0.082195 -0.736920
v 0.420006 -0.018960 -0.395043
v 0.372878 0.014682 -0.416422
v -0.114377 -0.113745 -0.530482
v -0.528663 -0.108374 -0.749136
v -0.049499 -0.181232 -0.353420
v -0.509498 -0.242147 -0.452880
v -0.761565 -0.306208 -0.370263
v -1.030252 -0.217614 -0.212832
v -0.761565 -0.105533 -0.800305
v -0.918755 0.014682 -0.699720
v 0.136853 -0.269371 0.000006
v 0.568268 -0.118214 0.000006
v 0.185013 -0.170924 -0.238686
v 0.578120 -0.096523 -0.139714
v 0.131755 -0.135098 0.000006
v 0.563170 -0.091550 0.000006
v 0.166632 -0.153085 -0.184341
v 0.559739 -0.104215 -0.082905
v -0.761565 -0.318709 -0.222630
v -0.521664 -0.320421 0.000006
v -0.905878 -0.320579 0.000006
v 0.211676 -0.122876 -0.276519
v 0.210829 -0.122978 0.276735
v -0.003849 -0.280279 0.000006
vt 0.338752 0.021724
vt 0.349023 0.082659
vt 0.319298 0.029100
vt 0.327233 0.000600
vt 0.000600 0.974208
vt 0.037234 0.858246
vt 0.083505 0.834536
vt 0.083505 0.957725
vt 0.316529 0.810534
vt 0.309155 0.786507
vt 0.308790 0.775403
vt 0.318090 0.788231
vt 0.349003 0.337775
vt 0.330200 0.345440
vt 0.330146 0.366748
vt 0.329875 0.473637
vt 0.329828 0.485681
vt 0.349023 0.502003
vt 0.348835 0.630713
vt 0.253879 0.262703
vt 0.291705 0.227134
vt 0.294725 0.105723
vt 0.081776 0.833337
vt 0.054401 0.822017
vt 0.047045 0.781443
vt 0.100071 0.758885
vt 0.978059 0.052592
vt 0.978060 0.175781
vt 0.970395 0.175781
vt 0.970395 0.052592
vt 0.305275 0.668428
vt 0.313563 0.654715
vt 0.304574 0.647103
vt 0.318090 0.631912
vt 0.900731 0.441814
vt 0.965990 0.373057
vt 0.965990 0.415348
vt 0.965990 0.538538
vt 0.965990 0.579774
vt 0.905816 0.526189
vt 0.978060 0.000600
vt 0.970395 0.000600
vt 0.084705 0.919064
vt 0.084705 0.834536
vt 0.092370 0.834536
vt 0.092370 0.919064
vt 0.319289 0.929904
vt 0.319289 0.808293
vt 0.326954 0.808293
vt 0.326954 0.929904
vt 0.350222 0.666636
vt 0.358287 0.630953
vt 0.439028 0.632868
vt 0.439028 0.657081
vt 0.091164 0.616164
vt 0.020210 0.661211
vt 0.010373 0.620080
vt 0.042873 0.559304
vt 0.100071 0.560111
vt 0.848836 0.681740
vt 0.848836 0.786043
vt 0.841617 0.771057
vt 0.838128 0.690369
vt 0.829464 0.681740
vt 0.829464 0.708339
vt 0.813168 0.711512
vt 0.813789 0.687307
vt 0.811754 0.871372
vt 0.811754 0.910672
vt 0.798558 0.906802
vt 0.796595 0.870271
vt 0.831553 0.719557
vt 0.831553 0.805423
vt 0.787731 0.760931
vt 0.000600 0.560610
vt 0.784184 0.697206
vt 0.764705 0.689819
vt 0.794473 0.636190
vt 0.772648 0.718357
vt 0.916495 0.687533
vt 0.999400 0.704016
vt 0.999400 0.827205
vt 0.953129 0.803495
vt 0.957280 0.187641
vt 0.958840 0.209944
vt 0.949541 0.222773
vt 0.949906 0.211669
vt 0.740104 0.613091
vt 0.737090 0.491518
vt 0.699216 0.455899
vt 0.717217 0.386551
vt 0.775645 0.373057
vt 0.794473 0.380733
vt 0.328898 0.714794
vt 0.402721 0.694107
vt 0.381885 0.747833
vt 0.341095 0.741790
vt 0.326954 0.755101
vt 0.319289 0.755101
vt 0.319289 0.631912
vt 0.326954 0.631912
vt 0.954314 0.343460
vt 0.946026 0.329746
vt 0.958840 0.366263
vt 0.945324 0.351072
vt 0.535745 0.549707
vt 0.597979 0.606908
vt 0.601559 0.687403
vt 0.569575 0.661375
vt 0.474025 0.583619
vt 0.446619 0.556635
vt 0.447795 0.471681
vt 0.539720 0.373057
vt 0.601559 0.445573
vt 0.326954 0.807093
vt 0.319289 0.807093
vt 0.950754 0.912932
vt 0.943089 0.912932
vt 0.943089 0.828404
vt 0.950754 0.828404
vt 0.934224 0.828404
vt 0.941889 0.828404
vt 0.941889 0.950015
vt 0.934224 0.950015
vt 0.856470 0.355946
vt 0.745636 0.336312
vt 0.750629 0.315101
vt 0.856470 0.307019
vt 0.545655 0.698407
vt 0.601559 0.688603
vt 0.601559 0.739446
vt 0.541325 0.772846
vt 0.502919 0.770777
vt 0.854751 0.291519
vt 0.748075 0.299684
vt 0.820001 0.907064
vt 0.816264 0.891890
vt 0.812954 0.870352
vt 0.820001 0.870271
vt 0.596709 0.868119
vt 0.596709 0.902999
vt 0.548040 0.897990
vt 0.533248 0.893046
vt 0.857670 0.291954
vt 0.915717 0.291519
vt 0.915717 0.353994
vt 0.599213 0.777161
vt 0.435137 0.608615
vt 0.415670 0.601233
vt 0.445420 0.547638
vt 0.423608 0.629753
vt 0.969195 0.000600
vt 0.969195 0.085128
vt 0.848371 0.109150
vt 0.862602 0.059143
vt 0.971995 0.187641
vt 0.973556 0.209944
vt 0.964256 0.222773
vt 0.964621 0.211669
vt 0.391085 0.524554
vt 0.388073 0.403057
vt 0.350222 0.367461
vt 0.444938 0.000600
vt 0.445106 0.128912
vt 0.425969 0.145181
vt 0.426288 0.156384
vt 0.426551 0.263348
vt 0.426603 0.284671
vt 0.445420 0.292343
vt 0.234383 0.559305
vt 0.252679 0.633756
vt 0.199653 0.611199
vt 0.207008 0.570624
vt 0.974855 0.496246
vt 0.967190 0.496246
vt 0.967190 0.373057
vt 0.974855 0.373057
vt 0.969030 0.343459
vt 0.960742 0.329746
vt 0.973556 0.366263
vt 0.960040 0.351072
vt 0.850036 0.825492
vt 0.855121 0.741117
vt 0.915295 0.687533
vt 0.915295 0.728768
vt 0.915295 0.851958
vt 0.915295 0.894249
vt 0.974855 0.548238
vt 0.967190 0.548238
vt 0.944615 0.580973
vt 0.952280 0.580973
vt 0.952280 0.665501
vt 0.944615 0.665501
vt 0.925360 0.828404
vt 0.933025 0.828404
vt 0.933025 0.950015
vt 0.925360 0.950015
vt 0.589498 0.316146
vt 0.678303 0.325700
vt 0.678303 0.349913
vt 0.597562 0.351829
vt 0.243772 0.776477
vt 0.252679 0.832531
vt 0.195481 0.833337
vt 0.162981 0.772561
vt 0.172817 0.731430
vt 0.315282 0.916037
vt 0.304574 0.907408
vt 0.308063 0.826720
vt 0.315282 0.811734
vt 0.811969 0.711512
vt 0.796294 0.705944
vt 0.795673 0.681740
vt 0.811969 0.684912
vt 0.343313 0.671213
vt 0.328154 0.672313
vt 0.330117 0.635783
vt 0.343313 0.631912
vt 0.787731 0.807896
vt 0.847985 0.806623
vt 0.847985 0.869072
vt 0.739246 0.316146
vt 0.739246 0.358439
vt 0.679503 0.350506
vt 0.687727 0.394208
vt 0.698016 0.455224
vt 0.668248 0.401595
vt 0.676190 0.373057
vt 0.588298 0.186889
vt 0.847171 0.186441
vt 0.765548 0.069026
vt 0.745636 0.015877
vt 0.847171 0.000600
vt 0.162981 0.974209
vt 0.199615 0.858247
vt 0.245886 0.834537
vt 0.245886 0.957726
vt 0.942564 0.366263
vt 0.935190 0.342235
vt 0.934825 0.331131
vt 0.944125 0.343960
vt 0.698016 0.710681
vt 0.679188 0.718357
vt 0.620817 0.705083
vt 0.602758 0.635515
vt 0.640633 0.599896
vt 0.643647 0.478322
vt 0.328898 0.840727
vt 0.341095 0.813732
vt 0.381885 0.807688
vt 0.402721 0.861414
vt 0.982421 0.239633
vt 0.982421 0.362822
vt 0.974756 0.362822
vt 0.974756 0.239633
vt 0.931310 0.224157
vt 0.939598 0.210444
vt 0.930609 0.202831
vt 0.944125 0.187641
vt 0.678623 0.138295
vt 0.744437 0.242430
vt 0.682598 0.314946
vt 0.590673 0.216322
vt 0.589498 0.131368
vt 0.616903 0.104384
vt 0.712453 0.026627
vt 0.744437 0.000600
vt 0.740857 0.081095
vt 0.982421 0.187641
vt 0.974756 0.187641
vt 0.787731 0.954799
vt 0.787731 0.870271
vt 0.795396 0.870271
vt 0.795396 0.954799
vt 0.916495 0.950015
vt 0.916495 0.828404
vt 0.924160 0.828404
vt 0.924160 0.950015
vt 0.439732 0.868119
vt 0.439732 0.917045
vt 0.333891 0.908963
vt 0.328898 0.887752
vt 0.545655 0.857114
vt 0.502919 0.784744
vt 0.541325 0.782675
vt 0.601559 0.816076
vt 0.601559 0.866919
vt 0.438013 0.932546
vt 0.331336 0.924380
vt 0.589498 0.353451
vt 0.626288 0.353028
vt 0.626288 0.360076
vt 0.604714 0.357013
vt 0.161781 0.902641
vt 0.098321 0.877714
vt 0.113112 0.872770
vt 0.161781 0.867760
vt 0.943415 0.580973
vt 0.943415 0.665935
vt 0.900731 0.620315
vt 0.599213 0.778361
vt 0.883293 0.373057
vt 0.899531 0.379078
vt 0.899531 0.686333
vt 0.850036 0.485401
vt 0.886430 0.480000
vt 0.161781 0.866560
vt 0.108618 0.839047
vt 0.114030 0.818407
vt 0.141176 0.714875
vt 0.143994 0.704128
vt 0.129522 0.683579
vt 0.161781 0.559305
vt 0.303374 0.939395
vt 0.287133 0.945188
vt 0.290273 0.838245
vt 0.253879 0.832844
vt 0.303374 0.631912
vt 0.795673 0.400799
vt 0.848836 0.373057
vt 0.848836 0.680540
vt 0.816577 0.556266
vt 0.831049 0.535717
vt 0.828231 0.524970
vt 0.801085 0.421438
vt 0.848371 0.138283
vt 0.939488 0.110350
vt 0.939488 0.182223
vt 0.923183 0.176386
vt 0.855034 0.174306
vt 0.532048 0.939764
vt 0.440932 0.911831
vt 0.447594 0.875808
vt 0.515743 0.873728
vt 0.532048 0.868119
vt 0.049065 0.558104
vt 0.000600 0.487223
vt 0.041010 0.316403
vt 0.080108 0.312416
vt 0.093699 0.209001
vt 0.067485 0.204493
vt 0.115719 0.000600
vt 0.126040 0.379586
vt 0.126040 0.502775
vt 0.175705 0.000600
vt 0.252679 0.055930
vt 0.252679 0.179118
vt 0.242359 0.558105
vt 0.194124 0.354210
vt 0.220338 0.349703
vt 0.206748 0.246288
vt 0.167650 0.242301
vt 0.127239 0.071481
vt 0.602758 0.747208
vt 0.885980 0.000196
vt 0.786531 0.719557
vt 0.786531 0.822235
vt 0.731011 0.810452
vt 0.602758 0.851086
vt 0.786531 0.823434
vt 0.786531 0.926112
vt 0.731011 0.914330
vt 0.745636 0.262668
vt 0.873889 0.199423
vt 0.929409 0.187641
vt 0.929409 0.290319
vn 0.1743 0.7389 0.6508
vn -0.1213 0.7449 0.6561
vn 0.2069 0.8866 0.4137
vn -0.1314 -0.1501 0.9799
vn -0.5914 0.7782 0.2113
vn -0.1327 0.4444 -0.8860
vn 0.4477 -0.0444 0.8931
vn 0.7452 0.3113 0.5897
vn 0.9232 -0.3169 0.2175
vn -0.9766 0.2126 0.0328
vn 0.4185 -0.4624 0.7817
vn 0.2648 0.8579 0.4403
vn -0.5239 0.8040 0.2814
vn -0.5879 0.7015 0.4027
vn 0.1683 0.3182 0.9330
vn 0.4561 0.7946 0.4007
vn -0.4849 0.7103 0.5103
vn 0.0715 0.9565 0.2829
vn -0.4490 0.8569 0.2534
vn 0.1743 -0.7389 0.6508
vn -0.1213 -0.7449 0.6561
vn 0.2069 -0.8866 0.4137
vn -0.1314 0.1501 0.9799
vn -0.5914 -0.7782 0.2113
vn -0.1327 -0.4444 -0.8860
vn 0.4477 0.0444 0.8931
vn 0.7452 -0.3113 0.5897
vn 0.1718 -0.9363 0.3063
vn 0.9232 0.3169 0.2175
vn -0.9766 -0.2126 0.0328
vn 0.4185 0.4624 0.7817
vn 0.0954 -0.9876 -0.1245
vn -0.3841 -0.9080 0.1674
vn -0.5879 -0.7015 0.4027
vn 0.1212 -0.9841 -0.1299
vn -0.6969 -0.7155 0.0491
vn 0.9755 0.0769 -0.2061
vn 0.0796 -0.9924 0.0934
vn -0.1306 -0.9871 0.0929
vn 0.1743 0.7389 -0.6508
vn -0.1213 0.7449 -0.6561
vn 0.2069 0.8866 -0.4137
vn -0.1314 -0.1501 -0.9799
vn -0.5914 0.7782 -0.2113
vn -0.1327 0.4444 0.8860
vn 0.4477 -0.0444 -0.8931
vn 0.7452 0.3113 -0.5897
vn 0.9232 -0.3169 -0.2175
vn -0.9766 0.2126 -0.0328
vn 0.4185 -0.4624 -0.7817
vn 0.2648 0.8579 -0.4403
vn -0.5239 0.8040 -0.2814
vn -0.5879 0.7015 -0.4027
vn 0.1683 0.3182 -0.9330
vn 0.4561 0.7946 -0.4007
vn -0.4849 0.7103 -0.5103
vn 0.0715 0.9565 -0.2829
vn -0.4490 0.8569 -0.2534
vn 0.1743 -0.7389 -0.6508
vn -0.1213 -0.7449 -0.6561
vn -0.6985 -0.7103 -0.0874
vn 0.2069 -0.8866 -0.4137
vn -0.1314 0.1501 -0.9799
vn -0.5914 -0.7782 -0.2113
vn -0.1327 -0.4444 0.8860
vn 0.4477 0.0444 -0.8931
vn 0.7452 -0.3113 -0.5897
vn 0.1718 -0.9363 -0.3063
vn 0.9232 0.3169 -0.2175
vn -0.9766 -0.2126 -0.0328
vn 0.4185 0.4624 -0.7817
vn 0.0954 -0.9876 0.1245
vn -0.3841 -0.9080 -0.1674
vn -0.5879 -0.7015 -0.4027
vn 0.1212 -0.9841 0.1299
vn -0.6969 -0.7155 -0.0491
vn 0.9755 0.0769 0.2061
vn 0.0796 -0.9924 -0.0934
vn -0.1306 -0.9871 -0.0929
vn 0.1946 -0.9420 -0.2735
vn 0.1946 -0.9419 0.2736
vn 0.1066 -0.9078 -0.4057
vn 0.1065 -0.9078 0.4056
vn -0.6985 0.7103 -0.0874
vn -0.6985 -0.7103 0.0874
vn -0.6985 0.7103 0.0874
usemtl Material.001
s off
f 22/1/1 28/2/1 3/3/1
f 22/1/2 3/3/2 23/4/2
f 11/5/3 10/6/3 12/7/3 13/8/3
f 25/9/4 2/10/4 6/11/4 34/12/4
f 3/3/3 28/2/3 24/13/3 1/14/3 9/15/3 6/16/3 2/17/3 25/18/3 84/19/3 5/20/3 4/21/3 8/22/3
f 23/23/5 3/24/5 16/25/5 45/26/5
f 5/27/6 7/28/6 13/29/6 12/30/6
f 34/12/7 6/11/7 9/31/7 37/32/7
f 37/32/8 9/31/8 1/33/8 24/34/8
f 7/35/3 21/36/3 14/37/3 16/38/3 3/39/3 8/40/3
f 4/41/9 5/27/9 12/30/9 10/42/9
f 7/43/10 8/44/10 11/45/10 13/46/10
f 8/47/11 4/48/11 10/49/11 11/50/11
f 73/51/12 19/52/12 20/53/12 74/54/12
f 15/55/13 14/56/13 21/57/13 79/58/13 52/59/13
f 45/26/14 16/25/14 14/56/14 15/55/14
f 17/60/15 18/61/15 20/62/15 19/63/15
f 18/64/16 70/65/16 74/66/16 20/67/16
f 69/68/17 17/69/17 19/70/17 73/71/17
f 21/72/18 78/73/18 51/74/18
f 79/58/19 21/57/19 51/75/19
f 22/76/20 29/77/20 28/78/20
f 22/76/21 23/79/21 29/77/21
f 39/80/22 41/81/22 40/82/22 38/83/22
f 25/84/23 34/85/23 32/86/23 27/87/23
f 29/77/22 35/88/22 30/89/22 31/90/22 121/91/22 26/92/22 24/93/22 28/78/22
f 23/94/24 45/95/24 44/96/24 29/97/24
f 31/98/25 40/99/25 41/100/25 33/101/25
f 34/85/26 37/102/26 36/103/26 32/86/26
f 37/102/27 24/104/27 26/105/27 36/103/27
f 33/106/28 35/107/28 29/108/28 44/109/28 42/110/28 50/111/28 118/112/28 122/113/28 31/114/28
f 30/115/29 38/116/29 40/99/29 31/98/29
f 33/117/30 41/118/30 39/119/30 35/120/30
f 35/121/31 39/122/31 38/123/31 30/124/31
f 113/125/32 114/126/32 49/127/32 48/128/32
f 43/129/33 83/130/33 119/131/33 50/132/33 42/133/33
f 45/95/34 43/129/34 42/133/34 44/96/34
f 46/134/35 48/128/35 49/127/35 47/135/35
f 47/136/36 49/137/36 114/138/36 110/139/36
f 109/140/37 113/141/37 48/142/37 46/143/37
f 50/144/38 82/145/38 118/146/38
f 119/131/39 82/147/39 50/132/39
f 80/148/40 55/149/40 91/150/40
f 80/148/41 81/151/41 55/149/41
f 63/152/42 65/153/42 64/154/42 62/155/42
f 88/156/43 97/157/43 58/158/43 54/159/43
f 55/149/42 60/160/42 56/161/42 57/162/42 84/163/42 88/164/42 54/165/42 58/166/42 61/167/42 53/168/42 87/169/42 91/150/42
f 81/170/44 108/171/44 68/172/44 55/173/44
f 57/174/45 64/175/45 65/176/45 59/177/45
f 97/157/46 100/178/46 61/179/46 58/158/46
f 100/178/47 87/180/47 53/181/47 61/179/47
f 59/182/42 60/183/42 55/184/42 68/185/42 66/186/42 77/187/42
f 56/188/48 62/189/48 64/175/48 57/174/48
f 59/190/49 65/191/49 63/192/49 60/193/49
f 60/194/50 63/195/50 62/196/50 56/197/50
f 73/198/51 74/199/51 76/200/51 75/201/51
f 67/202/52 52/203/52 79/204/52 77/205/52 66/206/52
f 108/171/53 67/202/53 66/206/53 68/172/53
f 71/207/54 75/208/54 76/209/54 72/210/54
f 72/211/55 76/212/55 74/213/55 70/214/55
f 69/215/56 73/216/56 75/217/56 71/218/56
f 77/219/57 51/220/57 78/221/57
f 79/222/58 51/223/58 77/224/58
f 80/225/59 91/226/59 92/227/59
f 80/225/60 92/227/60 81/228/60
f 85/229/61 45/230/61 15/231/61 52/232/61 86/233/61
f 102/234/62 101/235/62 103/236/62 104/237/62
f 88/238/63 90/239/63 95/240/63 97/241/63
f 92/227/62 91/226/62 87/242/62 89/243/62 120/244/62 94/245/62 93/246/62 98/247/62
f 81/248/64 92/249/64 107/250/64 108/251/64
f 94/252/65 96/253/65 104/254/65 103/255/65
f 97/241/66 95/240/66 99/256/66 100/257/66
f 100/257/67 99/256/67 89/258/67 87/259/67
f 96/260/68 94/261/68 122/262/68 118/263/68 117/264/68 105/265/68 107/266/68 92/267/68 98/268/68
f 93/269/69 94/252/69 103/255/69 101/270/69
f 96/271/70 98/272/70 102/273/70 104/274/70
f 98/275/71 93/276/71 101/277/71 102/278/71
f 113/279/72 115/280/72 116/281/72 114/282/72
f 106/283/73 105/284/73 117/285/73 119/286/73 83/287/73
f 108/251/74 107/250/74 105/284/74 106/283/74
f 111/288/75 112/289/75 116/281/75 115/280/75
f 112/290/76 110/291/76 114/292/76 116/293/76
f 109/294/77 111/295/77 115/296/77 113/297/77
f 117/298/78 118/299/78 82/300/78
f 119/286/79 117/285/79 82/301/79
f 111/302/80 120/303/80 84/304/80 110/305/80 112/306/80
f 120/307/62 89/308/62 99/309/62 95/310/62 90/311/62 88/312/62 84/313/62
f 121/314/81 46/315/81 47/316/81 110/317/81 84/318/81
f 26/319/22 121/320/22 84/321/22 25/322/22 27/323/22 32/324/22 36/325/22
f 122/326/82 94/327/82 120/328/82 111/329/82 109/330/82
f 31/331/83 122/332/83 109/333/83 46/334/83 121/335/83
f 77/336/42 78/337/42 69/338/42 71/339/42 72/340/42 70/341/42 84/342/42 57/343/42 59/344/42
f 21/345/3 7/346/3 5/347/3 84/348/3 70/349/3 18/350/3 17/351/3 69/352/3 78/353/3
f 45/354/84 85/355/84 86/356/84 83/357/84 43/358/84
f 108/359/85 85/229/85 86/360/85 52/361/85 67/362/85
f 85/355/86 108/363/86 106/364/86 83/365/86 86/366/86
