# Blender v3.0.1 OBJ File: 'burner.blend'
# www.blender.org
o Cube
v -0.226318 -0.030382 0.000000
v 0.333813 0.048257 -0.000000
v 0.074990 0.036221 0.113969
v -0.147007 0.158972 0.000000
v -0.147007 0.158972 0.000000
v -0.172780 0.164751 0.000000
v -0.392870 0.205567 0.000000
v -0.644682 0.210524 0.000000
v -0.241189 0.058842 0.000000
v -0.224335 0.057851 0.000000
v -0.226318 -0.030382 0.000000
v 0.102141 0.101996 0.066585
v 0.122837 0.112158 -0.000000
v -0.147007 0.158972 0.000000
v -0.147007 0.158972 0.000000
v -0.224335 0.057851 0.000000
v -0.264641 -0.073519 0.000000
v -0.226318 -0.030382 0.000000
v -0.280235 -0.051968 0.000000
v -0.193256 -0.046096 0.000000
v 0.057700 -0.119127 -0.000000
v 0.353641 -0.101773 -0.000000
v 0.595538 -0.046982 -0.000000
v 0.384656 0.035919 -0.000000
v 0.112659 0.104858 0.037374
v -0.119785 0.152907 0.000000
v -0.147007 0.158972 0.000000
v -0.172780 0.164751 0.000000
v -0.392870 0.205567 0.000000
v -0.644682 0.210524 0.000000
v -0.644682 0.197631 0.000000
v -0.426548 0.065660 0.000000
v -0.240227 0.067336 0.000000
v -0.224335 0.057851 0.000000
v -0.002557 0.068212 0.000000
v -0.331919 0.068212 0.000000
v -0.002557 0.006008 0.085616
v -0.331919 0.006008 0.085616
v -0.002557 -0.094640 0.052914
v -0.331919 -0.094640 0.052914
v -0.416187 0.006008 0.085616
v -0.416187 0.068212 0.000000
v -0.416187 -0.094640 0.052914
v -0.433040 -0.000527 0.065505
v -0.433040 0.047066 0.000000
v -0.433040 -0.077532 0.040485
v -0.473687 -0.005227 0.051038
v -0.473687 0.031854 0.000000
v -0.473687 -0.065226 0.031543
v -0.311976 -0.098134 0.260044
v -0.227640 -0.022220 0.193738
v -0.485783 -0.256301 0.378043
v -0.368308 -0.254202 0.357744
v 0.100763 -0.172105 0.233932
v 0.357058 -0.102040 0.147695
v 0.590015 -0.046809 0.021565
v 0.373881 0.034115 0.041808
v 0.324108 0.046038 0.055038
v -0.132391 0.135478 0.078785
v -0.159377 0.140696 0.084465
v -0.179593 0.158070 0.019582
v -0.392870 0.198325 0.008971
v -0.644681 0.202590 0.006445
v -0.644681 0.194127 0.005877
v -0.425892 0.067361 0.035298
v -0.241189 0.058462 0.040029
v -0.226094 0.053694 0.149153
v -0.193310 0.095543 0.123600
v -0.193578 0.000935 0.172837
v 0.069599 0.014455 0.127513
v 0.104210 0.018687 0.112920
v 0.270110 0.020553 0.077749
v -0.210214 0.100732 0.119904
v -0.199130 -0.048011 0.198734
v 0.283029 -0.027599 0.096299
v 0.088627 0.083794 0.086241
v 0.082648 0.066114 0.096297
v -0.473687 -0.010161 0.035854
v -0.473687 0.015889 0.000000
v -0.473687 -0.052310 0.022159
v -0.217400 -0.010161 0.035854
v -0.217400 0.015889 0.000000
v -0.217400 -0.052310 0.022159
v -0.226965 0.107713 0.031557
v -0.328946 -0.086289 0.084091
v -0.242271 -0.089858 0.093674
v 0.076498 -0.130392 0.091987
v -0.002557 -0.094640 0.000000
v -0.331919 -0.094640 0.000000
v -0.416187 -0.094640 0.000000
v -0.433040 -0.077532 0.000000
v -0.473687 -0.065226 0.000000
v -0.473687 -0.052310 0.000000
v -0.217400 -0.052310 0.000000
v 0.074990 0.036221 -0.113969
v 0.102141 0.101996 -0.066585
v 0.112659 0.104858 -0.037374
v -0.002557 0.006008 -0.085616
v -0.331919 0.006008 -0.085616
v -0.002557 -0.094640 -0.052914
v -0.331919 -0.094640 -0.052914
v -0.416187 0.006008 -0.085616
v -0.416187 -0.094640 -0.052913
v -0.433040 -0.000527 -0.065505
v -0.433040 -0.077532 -0.040484
v -0.473687 -0.005227 -0.051037
v -0.473687 -0.065226 -0.031543
v -0.311976 -0.098134 -0.260044
v -0.227641 -0.022220 -0.193738
v -0.485783 -0.256301 -0.378043
v -0.368308 -0.254202 -0.357744
v 0.100763 -0.172105 -0.233932
v 0.357058 -0.102040 -0.147696
v 0.590015 -0.046809 -0.021566
v 0.373881 0.034115 -0.041808
v 0.324108 0.046038 -0.055038
v -0.132391 0.135478 -0.078785
v -0.159377 0.140696 -0.084465
v -0.179593 0.158070 -0.019581
v -0.392870 0.198325 -0.008971
v -0.644681 0.202590 -0.006444
v -0.644681 0.194127 -0.005876
v -0.425892 0.067361 -0.035297
v -0.241189 0.058462 -0.040029
v -0.226094 0.053694 -0.149153
v -0.193310 0.095543 -0.123600
v -0.193578 0.000935 -0.172836
v 0.069599 0.014455 -0.127513
v 0.104210 0.018687 -0.112920
v 0.270110 0.020553 -0.077749
v -0.210214 0.100732 -0.119904
v -0.199131 -0.048011 -0.198734
v 0.283029 -0.027599 -0.096299
v 0.088627 0.083794 -0.086241
v 0.082648 0.066114 -0.096297
v -0.473687 -0.010161 -0.035854
v -0.473687 -0.052310 -0.022159
v -0.217400 -0.010161 -0.035854
v -0.217400 -0.052310 -0.022159
v -0.226965 0.107713 -0.031556
v -0.328946 -0.086289 -0.084091
v -0.242271 -0.089858 -0.093674
v 0.076498 -0.130392 -0.091987
vt 0.756096 0.337185
vt 0.756096 0.359455
vt 0.739463 0.355433
vt 0.851665 0.657780
vt 0.876759 0.652013
vt 0.876759 0.812720
vt 0.823776 0.818955
vt 0.214856 0.945500
vt 0.190783 0.803529
vt 0.214856 0.794395
vt 0.886165 0.377402
vt 0.886165 0.563338
vt 0.869274 0.573281
vt 0.849534 0.419583
vt 0.532052 0.360656
vt 0.532052 0.359942
vt 0.532064 0.359942
vt 0.532064 0.360656
vt 0.141516 0.456303
vt 0.141443 0.458414
vt 0.020457 0.454190
vt 0.141516 0.028052
vt 0.774338 0.652013
vt 0.811348 0.659147
vt 0.811348 0.832553
vt 0.729826 0.794294
vt 0.747021 0.775702
vt 0.481521 0.363425
vt 0.479710 0.363425
vt 0.479710 0.363393
vt 0.481521 0.363393
vt 0.918643 0.179157
vt 0.900481 0.188375
vt 0.883969 0.039567
vt 0.918643 0.028052
vt 0.519647 0.345475
vt 0.519647 0.347514
vt 0.519612 0.347514
vt 0.519612 0.345475
vt 0.961187 0.076161
vt 0.963589 0.028052
vt 0.974206 0.033204
vt 0.974206 0.089070
vt 0.520390 0.927016
vt 0.520390 0.984043
vt 0.502861 0.978669
vt 0.502250 0.925325
vt 0.837107 0.377402
vt 0.837107 0.557142
vt 0.769940 0.538639
vt 0.490546 0.350966
vt 0.479710 0.350569
vt 0.479720 0.350380
vt 0.490546 0.345475
vt 0.519624 0.359942
vt 0.519624 0.360656
vt 0.519612 0.360656
vt 0.519612 0.359942
vt 0.757512 0.377402
vt 0.757512 0.592550
vt 0.688383 0.592550
vt 0.688383 0.377402
vt 0.742173 0.028052
vt 0.742173 0.243200
vt 0.673044 0.243200
vt 0.673044 0.028052
vt 0.878822 0.831383
vt 0.878822 0.900512
vt 0.823776 0.900512
vt 0.823776 0.831383
vt 0.608629 0.754932
vt 0.608629 0.824061
vt 0.542883 0.845423
vt 0.522567 0.817460
vt 0.824985 0.569570
vt 0.824985 0.638699
vt 0.769940 0.638699
vt 0.769940 0.569570
vt 0.898593 0.590933
vt 0.898593 0.556369
vt 0.953639 0.556369
vt 0.953639 0.590933
vt 0.935521 0.912940
vt 0.935521 0.965831
vt 0.907779 0.959990
vt 0.907779 0.918780
vt 0.729511 0.948609
vt 0.729511 0.914045
vt 0.745198 0.922164
vt 0.745198 0.948609
vt 0.949796 0.467556
vt 0.949796 0.536685
vt 0.934109 0.528566
vt 0.934109 0.475675
vt 0.717083 0.914045
vt 0.717083 0.983174
vt 0.701396 0.975055
vt 0.701396 0.922164
vt 0.648799 0.914045
vt 0.648799 0.966936
vt 0.621057 0.961095
vt 0.621057 0.919886
vt 0.891250 0.874066
vt 0.891250 0.847621
vt 0.918992 0.853462
vt 0.918992 0.874066
vt 0.178355 0.794395
vt 0.178355 0.951510
vt 0.164806 0.954374
vt 0.153944 0.828240
vt 0.966755 0.199854
vt 0.966755 0.364372
vt 0.960079 0.364270
vt 0.959224 0.199754
vt 0.643464 0.028052
vt 0.660616 0.030833
vt 0.650325 0.097365
vt 0.660616 0.341485
vt 0.580407 0.189587
vt 0.507184 0.345475
vt 0.507184 0.353897
vt 0.503345 0.356186
vt 0.502974 0.350658
vt 0.676271 0.281434
vt 0.727035 0.255628
vt 0.727035 0.330371
vt 0.673044 0.348680
vt 0.921681 0.377402
vt 0.921681 0.543941
vt 0.898593 0.543813
vt 0.917372 0.378587
vt 0.754601 0.209483
vt 0.762907 0.038953
vt 0.823707 0.028052
vt 0.823707 0.237960
vt 0.298425 0.903436
vt 0.420119 0.901161
vt 0.420119 0.927951
vt 0.299295 0.926508
vt 0.489822 0.537025
vt 0.298425 0.507588
vt 0.310631 0.411858
vt 0.489822 0.377402
vt 0.487349 0.475305
vt 0.806936 0.255628
vt 0.819015 0.256131
vt 0.819015 0.353606
vt 0.808255 0.282385
vt 0.675955 0.377402
vt 0.675955 0.539418
vt 0.661838 0.535924
vt 0.579473 0.379518
vt 0.621057 0.735987
vt 0.678657 0.733570
vt 0.678657 0.860240
vt 0.627879 0.833223
vt 0.805140 0.971072
vt 0.787948 0.969614
vt 0.785740 0.955557
vt 0.805140 0.914045
vt 0.902308 0.807987
vt 0.889187 0.660554
vt 0.916090 0.652013
vt 0.916090 0.803348
vt 0.283171 0.794395
vt 0.283171 0.940615
vt 0.275686 0.939783
vt 0.269400 0.797975
vt 0.613212 0.593832
vt 0.581573 0.579995
vt 0.579473 0.551846
vt 0.613212 0.557296
vt 0.967568 0.455128
vt 0.934969 0.436311
vt 0.934109 0.377402
vt 0.967568 0.383099
vt 0.161969 0.650645
vt 0.196245 0.578262
vt 0.153944 0.258785
vt 0.180039 0.172595
vt 0.272848 0.028052
vt 0.285997 0.104821
vt 0.285997 0.426230
vt 0.266705 0.607682
vt 0.237181 0.781967
vt 0.946796 0.364372
vt 0.928861 0.210453
vt 0.946796 0.200803
vt 0.958045 0.656267
vt 0.971224 0.652013
vt 0.971224 0.837949
vt 0.484417 0.731613
vt 0.461539 0.553473
vt 0.484417 0.549453
vt 0.928518 0.652691
vt 0.945617 0.652013
vt 0.945617 0.831616
vt 0.567980 0.296344
vt 0.534898 0.303933
vt 0.499498 0.333048
vt 0.479710 0.192486
vt 0.485067 0.028052
vt 0.490601 0.028322
vt 0.567980 0.175512
vt 0.625639 0.578205
vt 0.650675 0.551846
vt 0.650675 0.582017
vt 0.606087 0.915369
vt 0.583807 0.895024
vt 0.606087 0.857851
vt 0.712531 0.803239
vt 0.701490 0.807403
vt 0.691085 0.771230
vt 0.712531 0.733570
vt 0.837073 0.210962
vt 0.836135 0.036297
vt 0.871541 0.028052
vt 0.871541 0.350317
vt 0.916433 0.200803
vt 0.916433 0.344356
vt 0.883969 0.331968
vt 0.906913 0.223585
vt 0.855182 0.993028
vt 0.830366 0.969015
vt 0.823776 0.927809
vt 0.855182 0.912940
vt 0.931071 0.036495
vt 0.948759 0.028052
vt 0.948759 0.185167
vt 0.256972 0.920996
vt 0.233787 0.922428
vt 0.227284 0.901128
vt 0.256972 0.794395
vt 0.939856 0.868226
vt 0.939856 0.888830
vt 0.931419 0.882700
vt 0.931419 0.868226
vt 0.811348 0.844981
vt 0.811348 0.886190
vt 0.802911 0.880060
vt 0.802911 0.851111
vt 0.486703 0.830666
vt 0.486703 0.871875
vt 0.478266 0.865745
vt 0.478266 0.836796
vt 0.298425 0.832881
vt 0.298425 0.818406
vt 0.465838 0.818406
vt 0.465838 0.832881
vt 0.465838 0.777029
vt 0.465838 0.805978
vt 0.298425 0.805978
vt 0.298425 0.777029
vt 0.621057 0.901617
vt 0.621057 0.872667
vt 0.788470 0.872667
vt 0.788470 0.901617
vt 0.478059 0.906584
vt 0.478059 0.965499
vt 0.433597 0.946970
vt 0.432546 0.901161
vt 0.298425 0.225167
vt 0.370584 0.028052
vt 0.467282 0.043565
vt 0.467282 0.364974
vt 0.567046 0.621738
vt 0.512900 0.639585
vt 0.502250 0.420621
vt 0.567046 0.377402
vt 0.854429 0.591858
vt 0.881962 0.600803
vt 0.845921 0.626989
vt 0.837413 0.615278
vt 0.717398 0.721142
vt 0.502250 0.721142
vt 0.502250 0.686578
vt 0.717398 0.686578
vt 0.756096 0.337185
vt 0.739463 0.355433
vt 0.756096 0.359455
vt 0.851665 0.657780
vt 0.823776 0.818955
vt 0.214856 0.794395
vt 0.886165 0.377402
vt 0.849534 0.419583
vt 0.869274 0.573281
vt 0.886165 0.563338
vt 0.747021 0.775702
vt 0.729826 0.794294
vt 0.811348 0.832553
vt 0.918643 0.179157
vt 0.883969 0.039567
vt 0.900481 0.188375
vt 0.961187 0.076161
vt 0.974206 0.089070
vt 0.974206 0.033204
vt 0.963589 0.028052
vt 0.502861 0.978669
vt 0.520390 0.984043
vt 0.837107 0.377402
vt 0.769940 0.538639
vt 0.837107 0.557142
vt 0.688383 0.377402
vt 0.688383 0.592550
vt 0.742173 0.028052
vt 0.673044 0.028052
vt 0.673044 0.243200
vt 0.742173 0.243200
vt 0.878822 0.831383
vt 0.823776 0.831383
vt 0.823776 0.900512
vt 0.878822 0.900512
vt 0.542883 0.845423
vt 0.608629 0.824061
vt 0.824985 0.569570
vt 0.769940 0.569570
vt 0.953639 0.556369
vt 0.898593 0.556369
vt 0.935521 0.912940
vt 0.907779 0.918780
vt 0.745198 0.922164
vt 0.729511 0.914045
vt 0.949796 0.467556
vt 0.934109 0.475675
vt 0.717083 0.914045
vt 0.701396 0.922164
vt 0.701396 0.975055
vt 0.717083 0.983174
vt 0.648799 0.914045
vt 0.621057 0.919886
vt 0.621057 0.961095
vt 0.648799 0.966936
vt 0.918992 0.853462
vt 0.891250 0.847621
vt 0.178355 0.794395
vt 0.153944 0.828240
vt 0.164806 0.954374
vt 0.178355 0.951510
vt 0.959224 0.199754
vt 0.960079 0.364270
vt 0.580407 0.189587
vt 0.660616 0.341485
vt 0.650325 0.097365
vt 0.502974 0.350658
vt 0.503345 0.356186
vt 0.673044 0.348680
vt 0.727035 0.330371
vt 0.917372 0.378587
vt 0.898593 0.543813
vt 0.823707 0.237960
vt 0.823707 0.028052
vt 0.299295 0.926508
vt 0.420119 0.927951
vt 0.487349 0.475305
vt 0.489822 0.377402
vt 0.310631 0.411858
vt 0.808255 0.282385
vt 0.819015 0.353606
vt 0.579473 0.379518
vt 0.661838 0.535924
vt 0.627879 0.833223
vt 0.678657 0.860240
vt 0.805140 0.914045
vt 0.785740 0.955557
vt 0.916090 0.803348
vt 0.916090 0.652013
vt 0.269400 0.797975
vt 0.275686 0.939783
vt 0.613212 0.593832
vt 0.581573 0.579995
vt 0.967568 0.455128
vt 0.967568 0.383099
vt 0.934109 0.377402
vt 0.934969 0.436311
vt 0.161969 0.650645
vt 0.237181 0.781967
vt 0.266705 0.607682
vt 0.285997 0.426230
vt 0.285997 0.104821
vt 0.272848 0.028052
vt 0.180039 0.172595
vt 0.153944 0.258785
vt 0.196245 0.578262
vt 0.946796 0.364372
vt 0.946796 0.200803
vt 0.928861 0.210453
vt 0.958045 0.656267
vt 0.971224 0.837949
vt 0.971224 0.652013
vt 0.484417 0.731613
vt 0.484417 0.549453
vt 0.461539 0.553473
vt 0.928518 0.652691
vt 0.945617 0.831616
vt 0.945617 0.652013
vt 0.567980 0.296344
vt 0.567980 0.175512
vt 0.490601 0.028322
vt 0.485067 0.028052
vt 0.479710 0.192486
vt 0.499498 0.333048
vt 0.534898 0.303933
vt 0.625639 0.578205
vt 0.650675 0.582017
vt 0.650675 0.551846
vt 0.606087 0.915369
vt 0.606087 0.857851
vt 0.583807 0.895024
vt 0.712531 0.803239
vt 0.712531 0.733570
vt 0.691085 0.771230
vt 0.701490 0.807403
vt 0.837073 0.210962
vt 0.871541 0.350317
vt 0.871541 0.028052
vt 0.836135 0.036297
vt 0.916433 0.200803
vt 0.906913 0.223585
vt 0.883969 0.331968
vt 0.916433 0.344356
vt 0.855182 0.993028
vt 0.855182 0.912940
vt 0.823776 0.927809
vt 0.830366 0.969015
vt 0.931071 0.036495
vt 0.948759 0.185167
vt 0.948759 0.028052
vt 0.256972 0.920996
vt 0.256972 0.794395
vt 0.227284 0.901128
vt 0.233787 0.922428
vt 0.931419 0.882700
vt 0.939856 0.888830
vt 0.811348 0.844981
vt 0.802911 0.851111
vt 0.486703 0.830666
vt 0.478266 0.836796
vt 0.478266 0.865745
vt 0.486703 0.871875
vt 0.465838 0.818406
vt 0.298425 0.818406
vt 0.465838 0.777029
vt 0.298425 0.777029
vt 0.621057 0.901617
vt 0.788470 0.901617
vt 0.788470 0.872667
vt 0.621057 0.872667
vt 0.478059 0.906584
vt 0.432546 0.901161
vt 0.433597 0.946970
vt 0.478059 0.965499
vt 0.298425 0.225167
vt 0.467282 0.364974
vt 0.467282 0.043565
vt 0.370584 0.028052
vt 0.567046 0.621738
vt 0.567046 0.377402
vt 0.502250 0.420621
vt 0.512900 0.639585
vt 0.854429 0.591858
vt 0.837413 0.615278
vt 0.717398 0.721142
vt 0.502250 0.721142
vn 0.2999 0.4494 0.8415
vn 0.1603 0.9586 0.2355
vn 0.2801 0.9249 0.2569
vn 0.1288 0.6579 0.7420
vn 0.0000 0.0000 1.0000
vn -0.6597 0.7488 0.0644
vn 0.2568 0.9590 0.1195
vn 0.1712 0.5687 0.8045
vn 0.2219 0.9449 0.2406
vn 0.1280 0.4576 0.8799
vn 0.0000 0.8090 0.5878
vn 0.0000 -0.3090 0.9511
vn 1.0000 0.0000 -0.0000
vn 0.0000 -1.0000 -0.0000
vn -0.2898 0.7743 0.5626
vn -0.7124 -0.7018 0.0000
vn -0.7124 0.5678 0.4125
vn -0.7124 -0.2169 0.6675
vn -0.2898 -0.2958 0.9102
vn -0.2898 -0.9571 0.0000
vn 0.1867 0.4162 0.8899
vn 0.0095 0.7126 0.7015
vn -0.4806 0.8664 0.1357
vn -1.0000 -0.0000 0.0000
vn 0.0335 -0.9217 -0.3864
vn -0.5078 -0.8609 -0.0296
vn -0.1869 -0.9332 -0.3070
vn -0.0182 -0.9953 -0.0949
vn 0.1116 -0.9825 -0.1490
vn -0.2022 -0.9768 -0.0702
vn 0.2263 -0.9741 0.0023
vn -0.9998 0.0190 -0.0092
vn 0.1256 0.9592 0.2532
vn 0.3606 0.9254 0.1165
vn 0.1521 0.8736 0.4623
vn 0.2448 0.9652 0.0919
vn -0.9198 0.3539 0.1694
vn 0.1548 0.5584 0.8150
vn 0.1473 0.9778 0.1489
vn 0.1356 0.4548 0.8802
vn 0.1368 0.4779 0.8677
vn 0.1408 0.4977 0.8559
vn -0.0159 0.1970 0.9803
vn 0.2392 0.4328 0.8692
vn 0.1846 0.4949 0.8491
vn 0.0739 0.4769 0.8759
vn 0.1689 0.3316 0.9282
vn 0.2002 0.4633 0.8633
vn 0.2642 0.3551 0.8967
vn 0.2011 0.6459 0.7364
vn 0.1982 0.4032 0.8934
vn 0.0000 1.0000 0.0000
vn -0.0000 -0.8090 -0.5878
vn -0.0000 0.3090 -0.9511
vn -0.5814 0.7701 0.2627
vn -0.0260 -0.8888 -0.4576
vn -0.0337 -0.8497 -0.5262
vn 0.2999 0.4494 -0.8415
vn 0.1603 0.9586 -0.2355
vn 0.2801 0.9249 -0.2569
vn 0.1288 0.6579 -0.7420
vn -0.6597 0.7488 -0.0644
vn 0.2568 0.9590 -0.1195
vn 0.1712 0.5687 -0.8045
vn 0.2219 0.9449 -0.2406
vn 0.1280 0.4576 -0.8799
vn -0.0000 0.8090 -0.5878
vn -0.0000 -0.3090 -0.9511
vn -0.2898 0.7743 -0.5626
vn -0.7124 0.5678 -0.4125
vn -0.7124 -0.2169 -0.6675
vn -0.2898 -0.2958 -0.9102
vn 0.1867 0.4162 -0.8899
vn 0.0095 0.7126 -0.7015
vn -0.4806 0.8664 -0.1357
vn 0.0335 -0.9217 0.3864
vn -0.5078 -0.8609 0.0296
vn -0.1869 -0.9332 0.3070
vn -0.0182 -0.9953 0.0949
vn 0.1116 -0.9825 0.1490
vn -0.2022 -0.9768 0.0702
vn 0.2263 -0.9741 -0.0023
vn -0.9998 0.0190 0.0092
vn 0.1256 0.9592 -0.2532
vn 0.3606 0.9254 -0.1165
vn 0.1521 0.8736 -0.4623
vn 0.2448 0.9652 -0.0919
vn -0.9198 0.3539 -0.1694
vn 0.1548 0.5584 -0.8150
vn 0.1473 0.9778 -0.1489
vn 0.1356 0.4548 -0.8802
vn 0.1368 0.4779 -0.8677
vn 0.1408 0.4977 -0.8559
vn -0.0159 0.1970 -0.9803
vn 0.2392 0.4328 -0.8692
vn 0.1846 0.4949 -0.8491
vn 0.0739 0.4769 -0.8759
vn 0.1689 0.3316 -0.9282
vn 0.2002 0.4633 -0.8633
vn 0.2642 0.3551 -0.8967
vn 0.2011 0.6459 -0.7364
vn 0.1982 0.4032 -0.8934
vn 0.0000 -0.8090 0.5878
vn 0.0000 0.3090 0.9511
vn -0.5814 0.7701 -0.2627
vn -0.0260 -0.8888 0.4576
vn -0.0337 -0.8497 0.5262
s off
f 71/1/1 3/2/1 70/3/1
f 25/4/2 13/5/2 26/6/2 59/7/2
f 2/8/3 13/9/3 25/10/3
f 68/11/4 76/12/4 12/13/4 59/14/4
f 1/15/5 10/16/5 16/17/5 11/18/5
f 4/19/5 5/20/5 15/21/5 14/22/5
f 18/23/6 17/24/6 50/25/6 74/26/6 51/27/6
f 6/28/5 7/29/5 29/30/5 28/31/5
f 25/32/7 12/33/7 58/34/7 2/35/7
f 7/36/5 8/37/5 30/38/5 29/39/5
f 60/40/8 73/41/8 68/42/8 59/43/8
f 27/44/9 60/45/9 59/46/9 26/47/9
f 70/48/10 68/49/10 69/50/10
f 9/51/5 10/52/5 34/53/5 33/54/5
f 10/55/5 1/56/5 18/57/5 34/58/5
f 35/59/11 36/60/11 38/61/11 37/62/11
f 37/63/12 38/64/12 40/65/12 39/66/12
f 40/67/12 38/68/12 41/69/12 43/70/12
f 35/71/13 37/72/13 39/73/13 88/74/13
f 38/75/11 36/76/11 42/77/11 41/78/11
f 89/79/14 40/80/14 43/81/14 90/82/14
f 44/83/15 45/84/15 48/85/15 47/86/15
f 90/87/16 43/88/16 46/89/16 91/90/16
f 41/91/17 42/92/17 45/93/17 44/94/17
f 43/95/18 41/96/18 44/97/18 46/98/18
f 46/99/19 44/100/19 47/101/19 49/102/19
f 91/103/20 46/104/20 49/105/20 92/106/20
f 58/107/21 76/108/21 77/109/21 72/110/21
f 29/111/22 30/112/22 63/113/22 62/114/22
f 17/115/23 19/116/23 85/117/23 52/118/23 50/119/23
f 30/120/24 31/121/24 64/122/24 63/123/24
f 19/124/25 20/125/25 86/126/25 85/127/25
f 31/128/26 32/129/26 65/130/26 64/131/26
f 20/132/27 21/133/27 87/134/27 86/135/27
f 32/136/28 33/137/28 66/138/28 65/139/28
f 21/140/29 22/141/29 55/142/29 54/143/29 87/144/29
f 33/145/30 34/146/30 67/147/30 66/148/30
f 22/149/31 23/150/31 56/151/31 55/152/31
f 34/153/32 18/154/32 51/155/32 67/156/32
f 27/157/33 28/158/33 61/159/33 60/160/33
f 23/161/34 24/162/34 57/163/34 56/164/34
f 28/165/35 29/166/35 62/167/35 61/168/35
f 58/169/36 57/170/36 24/171/36 2/172/36
f 67/173/37 73/174/37 84/175/37 66/176/37
f 57/177/38 75/178/38 74/179/38 50/180/38 52/181/38 53/182/38 54/183/38 55/184/38 56/185/38
f 59/186/39 12/187/39 25/188/39
f 77/189/40 76/190/40 68/191/40
f 68/192/41 3/193/41 77/194/41
f 70/195/42 3/196/42 68/197/42
f 66/198/43 84/199/43 61/200/43 62/201/43 63/202/43 64/203/43 65/204/43
f 74/205/44 69/206/44 51/207/44
f 51/208/45 69/209/45 67/210/45
f 68/211/46 73/212/46 67/213/46 69/214/46
f 70/215/47 69/216/47 74/217/47 75/218/47
f 70/219/48 75/220/48 72/221/48 71/222/48
f 57/223/49 58/224/49 72/225/49 75/226/49
f 12/227/50 76/228/50 58/229/50
f 77/230/51 3/231/51 71/232/51 72/233/51
f 92/234/24 49/235/24 80/236/24 93/237/24
f 47/238/24 48/239/24 79/240/24 78/241/24
f 49/242/24 47/243/24 78/244/24 80/245/24
f 93/246/52 80/247/52 83/248/52 94/249/52
f 78/250/53 79/251/53 82/252/53 81/253/53
f 80/254/54 78/255/54 81/256/54 83/257/54
f 84/258/55 73/259/55 60/260/55 61/261/55
f 86/262/56 87/263/56 54/264/56 53/265/56
f 85/266/57 86/267/57 53/268/57 52/269/57
f 81/270/24 82/271/24 94/272/24 83/273/24
f 39/274/14 40/275/14 89/276/14 88/277/14
f 129/278/58 128/279/58 95/280/58
f 97/281/59 117/282/59 26/6/59 13/5/59
f 2/8/60 97/283/60 13/9/60
f 126/284/61 117/285/61 96/286/61 134/287/61
f 18/23/62 109/288/62 132/289/62 108/290/62 17/24/62
f 97/291/63 2/35/63 116/292/63 96/293/63
f 118/294/64 117/295/64 126/296/64 131/297/64
f 27/44/65 26/47/65 117/298/65 118/299/65
f 128/300/66 127/301/66 126/302/66
f 35/59/67 98/303/67 99/304/67 36/60/67
f 98/305/68 100/306/68 101/307/68 99/308/68
f 101/309/68 103/310/68 102/311/68 99/312/68
f 35/71/13 88/74/13 100/313/13 98/314/13
f 99/315/67 102/316/67 42/77/67 36/76/67
f 89/79/14 90/82/14 103/317/14 101/318/14
f 104/319/69 106/320/69 48/85/69 45/84/69
f 90/87/16 91/90/16 105/321/16 103/322/16
f 102/323/70 104/324/70 45/93/70 42/92/70
f 103/325/71 105/326/71 104/327/71 102/328/71
f 105/329/72 107/330/72 106/331/72 104/332/72
f 91/103/20 92/106/20 107/333/20 105/334/20
f 116/335/73 130/336/73 135/337/73 134/338/73
f 29/111/74 120/339/74 121/340/74 30/112/74
f 17/115/75 108/341/75 110/342/75 141/343/75 19/116/75
f 30/120/24 121/344/24 122/345/24 31/121/24
f 19/124/76 141/346/76 142/347/76 20/125/76
f 31/128/77 122/348/77 123/349/77 32/129/77
f 20/132/78 142/350/78 143/351/78 21/133/78
f 32/136/79 123/352/79 124/353/79 33/137/79
f 21/140/80 143/354/80 112/355/80 113/356/80 22/141/80
f 33/145/81 124/357/81 125/358/81 34/146/81
f 22/149/82 113/359/82 114/360/82 23/150/82
f 34/153/83 125/361/83 109/362/83 18/154/83
f 27/157/84 118/363/84 119/364/84 28/158/84
f 23/161/85 114/365/85 115/366/85 24/162/85
f 28/165/86 119/367/86 120/368/86 29/166/86
f 116/369/87 2/172/87 24/171/87 115/370/87
f 125/371/88 124/372/88 140/373/88 131/374/88
f 115/375/89 114/376/89 113/377/89 112/378/89 111/379/89 110/380/89 108/381/89 132/382/89 133/383/89
f 117/384/90 97/385/90 96/386/90
f 135/387/91 126/388/91 134/389/91
f 126/390/92 135/391/92 95/392/92
f 128/393/93 126/394/93 95/395/93
f 124/396/94 123/397/94 122/398/94 121/399/94 120/400/94 119/401/94 140/402/94
f 132/403/95 109/404/95 127/405/95
f 109/406/96 125/407/96 127/408/96
f 126/409/97 127/410/97 125/411/97 131/412/97
f 128/413/98 133/414/98 132/415/98 127/416/98
f 128/417/99 129/418/99 130/419/99 133/420/99
f 115/421/100 133/422/100 130/423/100 116/424/100
f 96/425/101 116/426/101 134/427/101
f 135/428/102 130/429/102 129/430/102 95/431/102
f 92/234/24 93/237/24 137/432/24 107/433/24
f 106/434/24 136/435/24 79/240/24 48/239/24
f 107/436/24 137/437/24 136/438/24 106/439/24
f 93/246/52 94/249/52 139/440/52 137/441/52
f 136/442/103 138/443/103 82/252/103 79/251/103
f 137/444/104 139/445/104 138/446/104 136/447/104
f 140/448/105 119/449/105 118/450/105 131/451/105
f 142/452/106 111/453/106 112/454/106 143/455/106
f 141/456/107 110/457/107 111/458/107 142/459/107
f 138/460/24 139/461/24 94/272/24 82/271/24
f 100/462/14 88/277/14 89/276/14 101/463/14
l 5 6
