# Blender v3.0.1 OBJ File: 'harvester.blend'
# www.blender.org
mtllib harvester.mtl
o main_Cube
v 1.149737 -0.134865 0.713476
v -0.175308 -0.207265 0.713475
v 1.149736 0.208827 0.713476
v -0.175308 0.208827 0.713475
v 3.013248 0.208827 0.435279
v 3.013249 -0.536205 0.435278
v -0.488349 -0.520409 1.163728
v -0.488350 0.224622 1.163728
v 1.953419 -0.279717 1.319932
v 1.953418 0.056659 1.319932
v 2.595952 -0.288958 1.319932
v 2.595951 0.056659 1.319933
v 4.605895 -0.281091 0.758935
v 4.605894 -0.023961 0.758935
v 4.605895 -0.149949 0.861621
v 4.605894 -0.104673 0.861622
v -3.857635 -0.107192 1.163727
v -3.857635 0.224622 1.163726
v -4.246683 -0.520410 0.199307
v -4.246683 0.224622 0.199307
v -3.824861 -0.567422 1.503355
v -3.824861 0.422231 1.503355
v 0.363630 -0.567422 1.503355
v 0.363630 0.422231 1.503355
v -3.045907 -0.567422 2.038179
v -3.045907 0.422231 2.038179
v -0.637883 -0.567422 2.038179
v -0.637883 0.422231 2.038179
v 0.363630 -1.105361 0.907433
v -3.824861 -1.105361 0.907433
v -0.637883 -1.105361 1.442257
v -3.045907 -1.105361 1.442257
v 3.013249 0.040544 0.360323
v 3.013249 -0.346658 0.360323
v 3.013249 0.040544 0.360323
v 3.013249 -0.346658 0.360323
v 2.876365 0.040544 0.360323
v 2.876366 -0.346658 0.360323
v -2.838766 0.547715 0.253815
v -2.838766 0.686267 0.239381
v -2.838766 0.751559 0.226933
v -2.066933 0.694198 0.188961
v -2.066933 0.759490 0.176513
v -3.795213 -0.030792 0.991427
v -3.795213 0.180977 0.991427
v -3.536308 -0.030792 0.991427
v -3.536308 0.180977 0.991427
v -2.770422 -0.030792 1.656245
v -2.770422 0.180977 1.656245
v -2.511517 -0.030792 1.656245
v -2.511517 0.180977 1.656245
v -3.208245 -0.030792 0.991427
v -3.208245 0.180977 0.991427
v -2.949340 -0.030792 0.991427
v -2.949340 0.180977 0.991427
v -2.183454 -0.030792 1.656245
v -2.183454 0.180977 1.656245
v -1.924549 -0.030792 1.656245
v -1.924549 0.180977 1.656245
v -2.578338 -0.030792 0.991427
v -2.578338 0.180977 0.991427
v -2.319433 -0.030792 0.991427
v -2.319433 0.180977 0.991427
v -1.553546 -0.030792 1.656245
v -1.553546 0.180977 1.656245
v -1.294641 -0.030792 1.656245
v -1.294641 0.180977 1.656245
v -1.983732 -0.030792 0.991427
v -1.983732 0.180977 0.991427
v -1.724827 -0.030792 0.991427
v -1.724827 0.180977 0.991427
v -0.958941 -0.030792 1.656245
v -0.958941 0.180977 1.656245
v -0.700036 -0.030792 1.656245
v -0.700036 0.180977 1.656245
v 1.134281 -0.536205 0.000000
v 1.149737 -0.134865 -0.713476
v -0.175308 -0.207265 -0.713475
v -0.175308 -0.536205 0.000000
v 1.134282 0.364840 0.000000
v 1.149736 0.208827 -0.713476
v -0.175308 0.208827 -0.713475
v -0.110946 0.425478 0.000000
v 3.013248 0.208827 -0.435279
v 3.013250 0.332309 0.000000
v 3.013249 -0.536205 -0.435278
v 3.013249 -0.536205 0.000000
v -0.488349 -0.520409 -1.163728
v -0.488349 -0.896962 0.000000
v -0.488350 0.224622 -1.163728
v -0.488349 0.637840 0.000000
v 1.953419 -0.279717 -1.319932
v 1.953418 0.056659 -1.319932
v 2.595952 -0.288958 -1.319932
v 2.595951 0.056659 -1.319933
v 4.605895 -0.281091 -0.758935
v 4.605894 -0.023961 -0.758935
v 4.605895 -0.149949 -0.861621
v 4.605894 -0.104673 -0.861622
v -3.857635 -0.107192 -1.163727
v -3.857635 -0.546045 0.000000
v -3.857635 0.224622 -1.163726
v -3.857635 0.637840 0.000000
v -4.246683 -0.520410 -0.199307
v -4.246683 -0.520410 0.000000
v -4.246683 0.224622 -0.199307
v -4.246683 0.224622 0.000000
v -3.824861 -0.567422 -1.503355
v -3.824861 0.422231 -1.503355
v 0.363630 -0.567422 -1.503355
v 0.363630 0.422231 -1.503355
v -3.045907 -0.567422 -2.038179
v -3.045907 0.422231 -2.038179
v -0.637883 -0.567422 -2.038179
v -0.637883 0.422231 -2.038179
v 0.363630 -1.105361 -0.907433
v -3.824861 -1.105361 -0.907433
v -0.637883 -1.105361 -1.442257
v -3.045907 -1.105361 -1.442257
v 3.013250 0.121498 0.000000
v 3.013249 0.040544 -0.360323
v 3.013249 -0.346658 -0.360323
v 3.013250 0.121498 0.000000
v 3.013249 0.040544 -0.360323
v 3.013249 -0.346658 -0.360323
v 3.013249 -0.346658 0.000000
v 2.876366 0.121498 0.000000
v 2.876365 0.040544 -0.360323
v 2.876366 -0.346658 -0.360323
v 2.876366 -0.346658 0.000000
v -2.114292 0.637840 0.000000
v -2.838766 0.637840 0.000000
v -2.838766 0.547715 -0.253815
v -2.114292 0.678103 0.000000
v -2.838766 0.686267 -0.239381
v -2.114292 0.841684 0.000000
v -2.838766 0.841684 0.000000
v -2.838766 0.751559 -0.226933
v -2.066933 0.694198 -0.188961
v -2.010156 0.849615 0.000000
v -2.066933 0.759490 -0.176513
v -3.074380 0.686267 0.000000
v -3.074380 0.751559 0.000000
v -1.864575 0.695743 0.000000
v -1.864575 0.761035 0.000000
v -3.795213 -0.030792 -0.991427
v -3.795213 0.180977 -0.991427
v -3.536308 -0.030792 -0.991427
v -3.536308 0.180977 -0.991427
v -2.770422 -0.030792 -1.656245
v -2.770422 0.180977 -1.656245
v -2.511517 -0.030792 -1.656245
v -2.511517 0.180977 -1.656245
v -3.208245 -0.030792 -0.991427
v -3.208245 0.180977 -0.991427
v -2.949340 -0.030792 -0.991427
v -2.949340 0.180977 -0.991427
v -2.183454 -0.030792 -1.656245
v -2.183454 0.180977 -1.656245
v -1.924549 -0.030792 -1.656245
v -1.924549 0.180977 -1.656245
v -2.578338 -0.030792 -0.991427
v -2.578338 0.180977 -0.991427
v -2.319433 -0.030792 -0.991427
v -2.319433 0.180977 -0.991427
v -1.553546 -0.030792 -1.656245
v -1.553546 0.180977 -1.656245
v -1.294641 -0.030792 -1.656245
v -1.294641 0.180977 -1.656245
v -1.983732 -0.030792 -0.991427
v -1.983732 0.180977 -0.991427
v -1.724827 -0.030792 -0.991427
v -1.724827 0.180977 -0.991427
v -0.958941 -0.030792 -1.656245
v -0.958941 0.180977 -1.656245
v -0.700036 -0.030792 -1.656245
v -0.700036 0.180977 -1.656245
vt 0.388291 0.538986
vt 0.296936 0.540886
vt 0.300611 0.392833
vt 0.388291 0.392834
vt 0.591563 0.537003
vt 0.589857 0.397879
vt 0.673072 0.390696
vt 0.673072 0.538574
vt 0.043409 0.414523
vt 0.081765 0.414523
vt 0.081765 0.562400
vt 0.035329 0.562400
vt 0.083528 0.623600
vt 0.000381 0.623600
vt 0.540012 0.389934
vt 0.458511 0.387945
vt 0.489518 0.179968
vt 0.540012 0.180207
vt 0.348078 0.232227
vt 0.339713 0.211073
vt 0.388291 0.211073
vt 0.388291 0.232227
vt 0.771232 0.576289
vt 0.771232 0.659436
vt 0.589857 0.633456
vt 0.589857 0.604760
vt 0.828191 0.762844
vt 0.828191 0.682627
vt 0.836261 0.703035
vt 0.836261 0.744725
vt 0.679481 0.383563
vt 0.543047 0.379210
vt 0.540774 0.000381
vt 0.679481 0.005511
vt 0.267694 0.802351
vt 0.259540 0.719225
vt 0.307214 0.711295
vt 0.307214 0.849114
vt 0.780042 0.647292
vt 0.771995 0.559982
vt 0.831946 0.522932
vt 0.831946 0.659436
vt 0.064783 0.302160
vt 0.027243 0.302159
vt 0.026212 0.230452
vt 0.064783 0.230452
vt 0.296922 0.000381
vt 0.236196 0.166781
vt 0.234335 0.095090
vt 0.389053 0.298004
vt 0.389226 0.226297
vt 0.275451 0.420852
vt 0.275451 0.449548
vt 0.263991 0.440541
vt 0.263991 0.435488
vt 0.436332 0.000381
vt 0.450900 0.000858
vt 0.303928 0.391148
vt 0.285363 0.392071
vt 0.041726 0.000381
vt 0.046778 0.000381
vt 0.827428 0.660198
vt 0.827428 0.798017
vt 0.765833 0.783255
vt 0.771017 0.761625
vt 0.389053 0.798017
vt 0.389053 0.660198
vt 0.570511 0.660198
vt 0.651364 0.690257
vt 0.651364 0.660198
vt 0.765071 0.660198
vt 0.765071 0.798017
vt 0.083528 0.999619
vt 0.046497 0.999619
vt 0.325863 0.710533
vt 0.325863 0.627386
vt 0.348106 0.627386
vt 0.348106 0.710533
vt 0.209805 0.664417
vt 0.209805 0.627386
vt 0.351702 0.711715
vt 0.351702 0.850517
vt 0.307976 0.733537
vt 0.308191 0.711295
vt 0.790691 0.467824
vt 0.680243 0.467824
vt 0.680244 0.000381
vt 0.790691 0.000381
vt 0.168229 0.499914
vt 0.278676 0.499914
vt 0.278676 0.626624
vt 0.168229 0.626624
vt 0.478648 0.390696
vt 0.589095 0.390696
vt 0.589095 0.659436
vt 0.478648 0.659436
vt 0.084290 0.735764
vt 0.105567 0.627386
vt 0.209042 0.647700
vt 0.187766 0.756078
vt 0.233572 0.000381
vt 0.233572 0.467824
vt 0.143978 0.467824
vt 0.143978 0.000381
vt 0.791453 0.112152
vt 0.851140 0.000381
vt 0.851140 0.467824
vt 0.791453 0.380891
vt 0.084290 0.356053
vt 0.084291 0.087314
vt 0.389053 0.659436
vt 0.389053 0.390696
vt 0.209042 0.843110
vt 0.105567 0.822796
vt 0.084290 0.595296
vt 0.084290 0.468586
vt 0.388291 0.001377
vt 0.875057 0.776139
vt 0.875057 0.753441
vt 0.836607 0.701008
vt 0.836253 0.660333
vt 0.851705 0.660198
vt 0.852060 0.700874
vt 0.836625 0.786414
vt 0.836989 0.744718
vt 0.837352 0.786408
vt 0.836989 0.703035
vt 0.349183 0.541648
vt 0.349183 0.581861
vt 0.296936 0.581861
vt 0.305971 0.541648
vt 0.852441 0.744584
vt 0.852804 0.786273
vt 0.223989 0.819938
vt 0.231573 0.818880
vt 0.247578 0.852403
vt 0.240034 0.855874
vt 0.726946 0.562970
vt 0.737996 0.477421
vt 0.742489 0.477469
vt 0.742489 0.562626
vt 0.258778 0.822761
vt 0.258778 0.736146
vt 0.209805 0.741017
vt 0.213768 0.715010
vt 0.234850 0.743959
vt 0.228019 0.745943
vt 0.223058 0.711295
vt 0.249094 0.722305
vt 0.213441 0.846539
vt 0.279466 0.420090
vt 0.263991 0.394321
vt 0.279466 0.392833
vt 0.234335 0.440863
vt 0.234335 0.417230
vt 0.263229 0.417230
vt 0.263229 0.440863
vt 0.364657 0.541648
vt 0.388291 0.541648
vt 0.388291 0.677975
vt 0.364657 0.677975
vt 0.234335 0.416467
vt 0.234335 0.392833
vt 0.263229 0.392833
vt 0.263229 0.416467
vt 0.589857 0.562970
vt 0.589857 0.539336
vt 0.726184 0.539336
vt 0.726184 0.562970
vt 0.296174 0.417074
vt 0.296174 0.553401
vt 0.280448 0.529160
vt 0.280448 0.392833
vt 0.364657 0.839304
vt 0.364657 0.702977
vt 0.380382 0.678737
vt 0.380382 0.815064
vt 0.364657 0.541648
vt 0.388291 0.541648
vt 0.388291 0.677975
vt 0.364657 0.677975
vt 0.589857 0.562970
vt 0.589857 0.539336
vt 0.726184 0.539336
vt 0.726184 0.562970
vt 0.296174 0.417074
vt 0.296174 0.553401
vt 0.280448 0.529160
vt 0.280448 0.392833
vt 0.364657 0.839304
vt 0.364657 0.702977
vt 0.380382 0.678737
vt 0.380382 0.815064
vt 0.364657 0.541648
vt 0.388291 0.541648
vt 0.388291 0.677975
vt 0.364657 0.677975
vt 0.589857 0.562970
vt 0.589857 0.539336
vt 0.726184 0.539336
vt 0.726184 0.562970
vt 0.296174 0.417074
vt 0.296174 0.553401
vt 0.280448 0.529160
vt 0.280448 0.392833
vt 0.364657 0.839304
vt 0.364657 0.702977
vt 0.380382 0.678737
vt 0.380382 0.815064
vt 0.364657 0.541648
vt 0.388291 0.541648
vt 0.388291 0.677975
vt 0.364657 0.677975
vt 0.589857 0.562970
vt 0.589857 0.539336
vt 0.726184 0.539336
vt 0.726184 0.562970
vt 0.296174 0.417074
vt 0.296174 0.553401
vt 0.280448 0.529160
vt 0.280448 0.392833
vt 0.364657 0.839304
vt 0.364657 0.702977
vt 0.380382 0.678737
vt 0.380382 0.815064
vt 0.300611 0.392833
vt 0.296936 0.540886
vt 0.673072 0.538574
vt 0.673072 0.390696
vt 0.043409 0.414523
vt 0.035329 0.562400
vt 0.081765 0.562400
vt 0.081765 0.414523
vt 0.000381 0.623600
vt 0.083528 0.623600
vt 0.489518 0.179968
vt 0.458511 0.387945
vt 0.348078 0.232227
vt 0.339713 0.211073
vt 0.771232 0.576289
vt 0.589857 0.604760
vt 0.589857 0.633456
vt 0.771232 0.659436
vt 0.828191 0.762844
vt 0.836261 0.744725
vt 0.836261 0.703035
vt 0.828191 0.682627
vt 0.540774 0.000381
vt 0.543047 0.379210
vt 0.267694 0.802351
vt 0.307214 0.849114
vt 0.831946 0.522932
vt 0.771995 0.559982
vt 0.064783 0.302160
vt 0.064783 0.230452
vt 0.026212 0.230452
vt 0.027243 0.302159
vt 0.296922 0.000381
vt 0.234335 0.095090
vt 0.236196 0.166781
vt 0.389226 0.226297
vt 0.389053 0.298004
vt 0.275451 0.420852
vt 0.263991 0.435488
vt 0.263991 0.440541
vt 0.275451 0.449548
vt 0.450900 0.000858
vt 0.436332 0.000381
vt 0.285363 0.392071
vt 0.303928 0.391148
vt 0.046778 0.000381
vt 0.041726 0.000381
vt 0.827428 0.660198
vt 0.771017 0.761625
vt 0.389053 0.798017
vt 0.765071 0.798017
vt 0.651364 0.690257
vt 0.046497 0.999619
vt 0.083528 0.999619
vt 0.325863 0.710533
vt 0.325863 0.627386
vt 0.209805 0.664417
vt 0.209805 0.627386
vt 0.307976 0.733537
vt 0.351702 0.850517
vt 0.790691 0.467824
vt 0.790691 0.000381
vt 0.680244 0.000381
vt 0.680243 0.467824
vt 0.168229 0.499914
vt 0.168229 0.626624
vt 0.278676 0.626624
vt 0.278676 0.499914
vt 0.478648 0.390696
vt 0.478648 0.659436
vt 0.589095 0.659436
vt 0.589095 0.390696
vt 0.084290 0.735764
vt 0.187766 0.756078
vt 0.209042 0.647700
vt 0.105567 0.627386
vt 0.233572 0.000381
vt 0.143978 0.000381
vt 0.143978 0.467824
vt 0.233572 0.467824
vt 0.791453 0.112152
vt 0.791453 0.380891
vt 0.851140 0.467824
vt 0.851140 0.000381
vt 0.084291 0.087314
vt 0.084290 0.356053
vt 0.389053 0.390696
vt 0.389053 0.659436
vt 0.105567 0.822796
vt 0.209042 0.843110
vt 0.084290 0.468586
vt 0.084290 0.595296
vt 0.836607 0.701008
vt 0.852060 0.700874
vt 0.836989 0.744718
vt 0.836989 0.703035
vt 0.349183 0.541648
vt 0.305971 0.541648
vt 0.852441 0.744584
vt 0.223989 0.819938
vt 0.231573 0.818880
vt 0.726946 0.562970
vt 0.742489 0.562626
vt 0.234850 0.743959
vt 0.228019 0.745943
vt 0.279466 0.392833
vt 0.263991 0.394321
vt 0.234335 0.440863
vt 0.263229 0.440863
vt 0.263229 0.417230
vt 0.234335 0.417230
vt 0.364657 0.541648
vt 0.364657 0.677975
vt 0.388291 0.677975
vt 0.388291 0.541648
vt 0.234335 0.416467
vt 0.263229 0.416467
vt 0.263229 0.392833
vt 0.234335 0.392833
vt 0.589857 0.562970
vt 0.726184 0.562970
vt 0.726184 0.539336
vt 0.589857 0.539336
vt 0.296174 0.417074
vt 0.280448 0.392833
vt 0.280448 0.529160
vt 0.296174 0.553401
vt 0.364657 0.839304
vt 0.380382 0.815064
vt 0.380382 0.678737
vt 0.364657 0.702977
vt 0.364657 0.541648
vt 0.364657 0.677975
vt 0.388291 0.677975
vt 0.388291 0.541648
vt 0.589857 0.562970
vt 0.726184 0.562970
vt 0.726184 0.539336
vt 0.589857 0.539336
vt 0.296174 0.417074
vt 0.280448 0.392833
vt 0.280448 0.529160
vt 0.296174 0.553401
vt 0.364657 0.839304
vt 0.380382 0.815064
vt 0.380382 0.678737
vt 0.364657 0.702977
vt 0.364657 0.541648
vt 0.364657 0.677975
vt 0.388291 0.677975
vt 0.388291 0.541648
vt 0.589857 0.562970
vt 0.726184 0.562970
vt 0.726184 0.539336
vt 0.589857 0.539336
vt 0.296174 0.417074
vt 0.280448 0.392833
vt 0.280448 0.529160
vt 0.296174 0.553401
vt 0.364657 0.839304
vt 0.380382 0.815064
vt 0.380382 0.678737
vt 0.364657 0.702977
vt 0.364657 0.541648
vt 0.364657 0.677975
vt 0.388291 0.677975
vt 0.388291 0.541648
vt 0.589857 0.562970
vt 0.726184 0.562970
vt 0.726184 0.539336
vt 0.589857 0.539336
vt 0.296174 0.417074
vt 0.280448 0.392833
vt 0.280448 0.529160
vt 0.296174 0.553401
vt 0.364657 0.839304
vt 0.380382 0.815064
vt 0.380382 0.678737
vt 0.364657 0.702977
vn 0.0245 -0.8900 0.4552
vn 0.0228 0.9671 0.2534
vn -0.0000 -0.0000 1.0000
vn 0.8211 0.0000 0.5708
vn 0.0260 0.9714 0.2360
vn 1.0000 0.0000 0.0000
vn 0.1991 0.0000 -0.9800
vn -0.1064 -0.9384 0.3288
vn 0.4679 0.8329 0.2955
vn 0.7834 -0.5818 0.2186
vn -0.1493 -0.9831 0.1062
vn -0.6023 -0.0000 0.7982
vn 0.0216 0.9807 0.1946
vn 0.1147 0.9549 0.2737
vn 0.1145 -0.9105 0.3973
vn 0.2223 -0.0000 0.9750
vn -0.6554 0.7228 0.2191
vn -0.0000 0.9424 0.3346
vn -1.0000 0.0000 -0.0000
vn -0.9274 0.0000 0.3741
vn 0.0939 -0.9477 0.3051
vn 0.0000 0.0000 -1.0000
vn 0.4711 0.0000 0.8821
vn -0.5660 0.0000 0.8244
vn 0.0000 0.7423 -0.6701
vn 0.0000 1.0000 0.0000
vn 0.0000 -1.0000 -0.0000
vn 0.0000 -0.7423 0.6701
vn -0.4180 -0.6744 0.6087
vn 0.3369 -0.6989 0.6309
vn -0.0764 -0.9410 0.3298
vn 0.0000 -0.9757 -0.2192
vn -0.7018 0.0676 0.7092
vn 0.3174 0.0763 0.9452
vn -0.0000 0.9294 0.3691
vn 0.0684 -0.9683 0.2401
vn 0.6682 0.0706 0.7406
vn 0.0621 0.1869 0.9804
vn 0.0078 0.9073 0.4204
vn 0.0105 -0.9999 0.0030
vn -0.3350 0.8757 0.3478
vn 0.4451 0.7315 0.5166
vn -0.1975 -0.9608 0.1944
vn 0.5442 0.0000 -0.8389
vn -0.5442 0.0000 0.8389
vn 0.0245 -0.8900 -0.4552
vn 0.0228 0.9671 -0.2534
vn 0.8211 0.0000 -0.5708
vn 0.0260 0.9714 -0.2360
vn 0.1991 0.0000 0.9800
vn -0.1064 -0.9384 -0.3288
vn 0.4679 0.8329 -0.2955
vn 0.7834 -0.5818 -0.2186
vn -0.1493 -0.9831 -0.1062
vn -0.6023 -0.0000 -0.7982
vn 0.0216 0.9807 -0.1946
vn 0.1147 0.9549 -0.2737
vn 0.1145 -0.9105 -0.3973
vn 0.2223 -0.0000 -0.9750
vn -0.6554 0.7228 -0.2191
vn -0.0000 0.9424 -0.3346
vn -0.9274 0.0000 -0.3741
vn 0.0939 -0.9477 -0.3051
vn 0.4711 0.0000 -0.8821
vn -0.5660 0.0000 -0.8244
vn 0.0000 0.7423 0.6701
vn 0.0000 -0.7423 -0.6701
vn -0.4180 -0.6744 -0.6087
vn 0.3369 -0.6989 -0.6309
vn -0.0764 -0.9410 -0.3298
vn 0.0000 -0.9757 0.2192
vn -0.7018 0.0676 -0.7092
vn 0.3174 0.0763 -0.9452
vn -0.0000 0.9294 -0.3691
vn 0.0684 -0.9683 -0.2401
vn 0.6682 0.0706 -0.7406
vn 0.0621 0.1869 -0.9804
vn 0.0078 0.9073 -0.4204
vn 0.0105 -0.9999 -0.0030
vn -0.3350 0.8757 -0.3478
vn 0.4451 0.7315 -0.5166
vn -0.1975 -0.9608 -0.1944
vn 0.5442 0.0000 0.8389
vn -0.5442 0.0000 -0.8389
usemtl Material
s off
f 76/1/1 1/2/1 2/3/1 79/4/1
f 80/5/2 83/6/2 4/7/2 3/8/2
f 1/9/3 3/10/3 4/11/3 2/12/3
f 2/12/4 4/11/4 8/13/4 7/14/4
f 80/15/5 3/16/5 5/17/5 85/18/5
f 36/19/6 6/20/6 87/21/6 126/22/6
f 6/23/7 5/24/7 14/25/7 13/26/7
f 5/27/6 6/28/6 34/29/6 33/30/6
f 89/31/8 7/32/8 17/33/8 101/34/8
f 4/35/9 83/36/9 91/37/9 8/38/9
f 79/39/10 2/40/10 7/41/10 89/42/10
f 10/43/3 9/44/3 11/45/3 12/46/3
f 1/47/11 6/20/11 11/48/11 9/49/11
f 3/10/12 1/9/12 9/44/12 10/43/12
f 5/17/13 3/16/13 10/50/13 12/51/13
f 13/52/6 14/53/6 16/54/6 15/55/6
f 5/17/14 12/51/14 16/56/14 14/57/14
f 11/48/15 6/20/15 13/58/15 15/59/15
f 12/46/16 11/45/16 15/60/16 16/61/16
f 18/62/17 103/63/17 107/64/17 20/65/17
f 8/66/18 91/67/18 131/68/18 39/69/18 132/70/18 103/71/18 18/72/18
f 7/14/3 8/13/3 18/73/3 17/74/3
f 19/75/19 20/76/19 107/77/19 105/78/19
f 17/79/20 18/80/20 20/76/20 19/75/20
f 101/81/21 17/82/21 19/83/21 105/84/21
f 21/85/22 22/86/22 24/87/22 23/88/22
f 23/89/23 24/90/23 28/91/23 27/92/23
f 27/93/3 28/94/3 26/95/3 25/96/3
f 25/97/24 26/98/24 22/99/24 21/100/24
f 21/101/25 23/102/25 29/103/25 30/104/25
f 28/105/26 24/106/26 22/107/26 26/108/26
f 29/103/27 31/109/27 32/110/27 30/104/27
f 27/93/28 25/96/28 32/111/28 31/112/28
f 25/97/29 21/100/29 30/113/29 32/114/29
f 23/89/30 27/92/30 31/115/30 29/116/30
f 76/117/31 87/21/31 6/20/31 1/47/31
f 85/118/6 5/27/6 33/30/6 120/119/6
f 36/120/26 126/121/26 130/122/26 38/123/26
f 120/124/3 33/30/3 35/125/3 123/126/3
f 33/30/3 34/29/3 36/127/3 35/125/3
f 38/128/6 130/129/6 127/130/6 37/131/6
f 123/126/32 35/125/32 37/132/32 127/133/32
f 35/125/22 36/120/22 38/123/22 37/132/22
f 40/134/33 41/135/33 143/136/33 142/137/33
f 39/138/34 131/139/34 134/140/34 40/141/34
f 137/142/35 41/135/35 136/143/35
f 40/134/36 134/144/36 144/145/36
f 43/146/37 42/147/37 144/145/37 145/148/37
f 41/135/38 40/134/38 42/147/38 43/146/38
f 136/143/39 41/135/39 43/146/39 140/149/39
f 42/147/40 40/134/40 144/145/40
f 137/142/41 143/136/41 41/135/41
f 43/146/42 145/148/42 140/149/42
f 132/150/43 40/134/43 142/137/43
f 132/151/19 39/152/19 40/153/19
f 44/154/22 45/155/22 47/156/22 46/157/22
f 46/158/44 47/159/44 51/160/44 50/161/44
f 50/162/3 51/163/3 49/164/3 48/165/3
f 48/166/45 49/167/45 45/168/45 44/169/45
f 46/170/27 50/171/27 48/172/27 44/173/27
f 51/174/26 47/175/26 45/176/26 49/177/26
f 54/178/44 55/179/44 59/180/44 58/181/44
f 56/182/45 57/183/45 53/184/45 52/185/45
f 54/186/27 58/187/27 56/188/27 52/189/27
f 59/190/26 55/191/26 53/192/26 57/193/26
f 62/194/44 63/195/44 67/196/44 66/197/44
f 64/198/45 65/199/45 61/200/45 60/201/45
f 62/202/27 66/203/27 64/204/27 60/205/27
f 67/206/26 63/207/26 61/208/26 65/209/26
f 70/210/44 71/211/44 75/212/44 74/213/44
f 72/214/45 73/215/45 69/216/45 68/217/45
f 70/218/27 74/219/27 72/220/27 68/221/27
f 75/222/26 71/223/26 69/224/26 73/225/26
f 76/1/46 79/4/46 78/226/46 77/227/46
f 80/5/47 81/228/47 82/229/47 83/6/47
f 77/230/22 78/231/22 82/232/22 81/233/22
f 78/231/48 88/234/48 90/235/48 82/232/48
f 80/15/49 85/18/49 84/236/49 81/237/49
f 125/238/6 126/22/6 87/21/6 86/239/6
f 86/240/50 96/241/50 97/242/50 84/243/50
f 84/244/6 121/245/6 122/246/6 86/247/6
f 89/31/51 101/34/51 100/248/51 88/249/51
f 82/250/52 90/251/52 91/37/52 83/36/52
f 79/39/53 89/42/53 88/252/53 78/253/53
f 93/254/22 95/255/22 94/256/22 92/257/22
f 77/258/54 92/259/54 94/260/54 86/239/54
f 81/233/55 93/254/55 92/257/55 77/230/55
f 84/236/56 95/261/56 93/262/56 81/237/56
f 96/263/6 98/264/6 99/265/6 97/266/6
f 84/236/57 97/267/57 99/268/57 95/261/57
f 94/260/58 98/269/58 96/270/58 86/239/58
f 95/255/59 99/271/59 98/272/59 94/256/59
f 102/273/60 106/274/60 107/64/60 103/63/60
f 90/275/61 102/276/61 103/71/61 132/70/61 133/277/61 131/68/61 91/67/61
f 88/234/22 100/278/22 102/279/22 90/235/22
f 104/280/19 105/78/19 107/77/19 106/281/19
f 100/282/62 104/280/62 106/281/62 102/283/62
f 101/81/63 105/84/63 104/284/63 100/285/63
f 108/286/3 110/287/3 111/288/3 109/289/3
f 110/290/64 114/291/64 115/292/64 111/293/64
f 114/294/22 112/295/22 113/296/22 115/297/22
f 112/298/65 108/299/65 109/300/65 113/301/65
f 108/302/66 117/303/66 116/304/66 110/305/66
f 115/306/26 113/307/26 109/308/26 111/309/26
f 116/304/27 117/303/27 119/310/27 118/311/27
f 114/294/67 118/312/67 119/313/67 112/295/67
f 112/298/68 119/314/68 117/315/68 108/299/68
f 110/290/69 116/316/69 118/317/69 114/291/69
f 76/117/70 77/258/70 86/239/70 87/21/70
f 85/118/6 120/119/6 121/245/6 84/244/6
f 125/318/26 129/319/26 130/122/26 126/121/26
f 120/124/3 123/126/3 124/320/3 121/245/3
f 121/245/3 124/320/3 125/321/3 122/246/3
f 129/322/6 128/323/6 127/130/6 130/129/6
f 123/126/71 127/133/71 128/324/71 124/320/71
f 124/320/3 128/324/3 129/319/3 125/318/3
f 135/325/72 142/137/72 143/136/72 138/326/72
f 133/327/73 135/328/73 134/140/73 131/139/73
f 137/142/74 136/143/74 138/326/74
f 135/325/75 144/145/75 134/144/75
f 141/329/76 145/148/76 144/145/76 139/330/76
f 138/326/77 141/329/77 139/330/77 135/325/77
f 136/143/78 140/149/78 141/329/78 138/326/78
f 139/330/79 144/145/79 135/325/79
f 137/142/80 138/326/80 143/136/80
f 141/329/81 140/149/81 145/148/81
f 132/150/82 142/137/82 135/325/82
f 132/151/19 135/331/19 133/332/19
f 146/333/3 148/334/3 149/335/3 147/336/3
f 148/337/83 152/338/83 153/339/83 149/340/83
f 152/341/22 150/342/22 151/343/22 153/344/22
f 150/345/84 146/346/84 147/347/84 151/348/84
f 148/349/27 146/350/27 150/351/27 152/352/27
f 153/353/26 151/354/26 147/355/26 149/356/26
f 156/357/83 160/358/83 161/359/83 157/360/83
f 158/361/84 154/362/84 155/363/84 159/364/84
f 156/365/27 154/366/27 158/367/27 160/368/27
f 161/369/26 159/370/26 155/371/26 157/372/26
f 164/373/83 168/374/83 169/375/83 165/376/83
f 166/377/84 162/378/84 163/379/84 167/380/84
f 164/381/27 162/382/27 166/383/27 168/384/27
f 169/385/26 167/386/26 163/387/26 165/388/26
f 172/389/83 176/390/83 177/391/83 173/392/83
f 174/393/84 170/394/84 171/395/84 175/396/84
f 172/397/27 170/398/27 174/399/27 176/400/27
f 177/401/26 175/402/26 171/403/26 173/404/26
