# Blender v3.0.1 OBJ File: 'telescope.blend'
# www.blender.org
mtllib telescope.mtl
o Cylinder
v 0.059627 0.533185 0.629665
v -0.661797 2.154125 0.000000
v 0.687597 0.533185 0.001695
v -0.568343 0.533185 0.001695
v 1.059627 -2.155099 0.000000
v 1.059627 -0.155099 0.000000
v 0.766734 -2.155099 0.707107
v 0.766734 -0.155099 0.707107
v 0.059627 -2.155099 1.000000
v 0.059627 -0.155099 1.000000
v -0.647480 -2.155099 0.707107
v -0.647480 -0.155099 0.707107
v -0.940373 -2.155099 0.000000
v -0.940373 -0.155099 0.000000
v 0.503669 0.533185 0.445737
v -0.384415 0.533185 0.445737
v -0.450496 2.492757 0.473807
v 0.059627 2.743915 0.694396
v 0.571048 3.045796 0.473807
v 0.588358 3.055958 0.000000
v -0.520379 2.154125 0.000000
v -0.384663 2.492757 0.421795
v 0.045841 2.743915 0.563477
v 0.467907 3.042164 0.423696
v 0.479858 3.042164 0.000000
v -0.520379 0.919443 0.000000
v -0.384663 0.919443 0.421795
v 0.045841 0.919443 0.563477
v 0.467240 0.919443 0.421795
v 0.479192 0.919443 0.000000
v 0.569750 3.638740 0.473807
v 0.588358 3.654275 0.000000
v 0.466609 3.635108 0.423696
v 0.479192 3.654275 0.000000
v 0.569750 3.837298 0.298489
v 0.588358 3.837298 0.000000
v 0.467241 3.837298 0.282965
v 0.479192 3.837298 0.000000
v 0.600030 0.445366 1.195675
v 0.600030 -1.554634 1.195675
v 0.600030 0.445366 3.195675
v 0.600030 -1.554634 3.195675
v 0.384942 0.445366 1.195675
v 0.384942 -1.554634 1.195675
v 0.384942 0.445366 3.195675
v 0.384942 -1.554634 3.195675
v 0.599595 0.454123 1.198002
v 0.599595 -1.545877 1.198002
v 0.599595 0.454123 3.198002
v 0.599595 -1.545877 3.198002
v 0.384507 0.454123 1.198002
v 0.384507 -1.545877 1.198002
v 0.384507 0.454123 3.198002
v 0.384507 -1.545877 3.198002
v -0.190358 2.128123 0.975548
v -0.190358 0.128123 0.975548
v -0.190358 2.128123 2.975548
v -0.190358 0.128123 2.975548
v -0.405446 2.128123 0.975548
v -0.405446 0.128123 0.975548
v -0.405446 2.128123 2.975548
v -0.405446 0.128123 2.975548
v -0.190794 2.136881 0.977875
v -0.190794 0.136881 0.977875
v -0.190794 2.136881 2.977875
v -0.190794 0.136881 2.977875
v -0.405882 2.136881 0.977875
v -0.405882 0.136881 0.977875
v -0.405882 2.136881 2.977875
v -0.405882 0.136881 2.977875
v 0.059627 0.533185 -0.629665
v 0.687597 0.533185 -0.001695
v -0.568343 0.533185 -0.001695
v 0.766734 -2.155099 -0.707107
v 0.766734 -0.155099 -0.707107
v 0.059627 -2.155099 -1.000000
v 0.059627 -0.155099 -1.000000
v -0.647480 -2.155099 -0.707107
v -0.647480 -0.155099 -0.707107
v 0.503669 0.533185 -0.445737
v -0.384415 0.533185 -0.445737
v -0.450496 2.492757 -0.473807
v 0.059627 2.743915 -0.694396
v 0.571048 3.045796 -0.473807
v -0.384663 2.492757 -0.421795
v 0.045841 2.743915 -0.563477
v 0.467907 3.042164 -0.423696
v -0.384663 0.919443 -0.421795
v 0.045841 0.919443 -0.563477
v 0.467240 0.919443 -0.421795
v 0.569750 3.638740 -0.473807
v 0.466609 3.635108 -0.423696
v 0.569750 3.837298 -0.298489
v 0.467241 3.837298 -0.282965
v 0.600030 0.445366 -1.195675
v 0.600030 -1.554634 -1.195675
v 0.600030 0.445366 -3.195675
v 0.600030 -1.554634 -3.195675
v 0.384942 0.445366 -1.195675
v 0.384942 -1.554634 -1.195675
v 0.384942 0.445366 -3.195675
v 0.384942 -1.554634 -3.195675
v 0.599595 0.454123 -1.198002
v 0.599595 -1.545877 -1.198002
v 0.599595 0.454123 -3.198002
v 0.599595 -1.545877 -3.198002
v 0.384507 0.454123 -1.198002
v 0.384507 -1.545877 -1.198002
v 0.384507 0.454123 -3.198002
v 0.384507 -1.545877 -3.198002
v -0.190358 2.128123 -0.975548
v -0.190358 0.128123 -0.975548
v -0.190358 2.128123 -2.975548
v -0.190358 0.128123 -2.975548
v -0.405446 2.128123 -0.975548
v -0.405446 0.128123 -0.975548
v -0.405446 2.128123 -2.975548
v -0.405446 0.128123 -2.975548
v -0.190794 2.136881 -0.977875
v -0.190794 0.136881 -0.977875
v -0.190794 2.136881 -2.977875
v -0.190794 0.136881 -2.977875
v -0.405882 2.136881 -0.977875
v -0.405882 0.136881 -0.977875
v -0.405882 2.136881 -2.977875
v -0.405882 0.136881 -2.977875
vt 0.019326 0.866518
vt 0.019326 0.783793
vt 0.102448 0.799012
vt 0.102448 0.850960
vt 0.141101 0.866518
vt 0.141101 0.783793
vt 0.224223 0.799350
vt 0.224223 0.851299
vt 0.102051 0.528971
vt 0.102051 0.745140
vt 0.019326 0.745140
vt 0.019326 0.528971
vt 0.528971 0.490318
vt 0.528971 0.274149
vt 0.611695 0.274149
vt 0.611695 0.490318
vt 0.223428 0.528971
vt 0.223428 0.745140
vt 0.140703 0.745140
vt 0.140703 0.528971
vt 0.650348 0.490318
vt 0.650348 0.274149
vt 0.733072 0.274149
vt 0.733073 0.490318
vt 0.372333 0.745141
vt 0.372333 0.528971
vt 0.446727 0.569182
vt 0.446727 0.704930
vt 0.637056 0.019326
vt 0.637056 0.235496
vt 0.560628 0.203839
vt 0.528971 0.127411
vt 0.560628 0.050984
vt 0.537328 0.840508
vt 0.537328 0.923233
vt 0.454250 0.907915
vt 0.454250 0.855966
vt 0.281743 0.528971
vt 0.333681 0.530040
vt 0.333681 0.801730
vt 0.274149 0.767899
vt 0.357226 0.840382
vt 0.357226 0.923107
vt 0.274149 0.907649
vt 0.274149 0.855700
vt 0.409688 0.840382
vt 0.409688 0.908856
vt 0.399664 0.901555
vt 0.395879 0.843813
vt 0.583791 0.528971
vt 0.635736 0.529553
vt 0.635736 0.768602
vt 0.575980 0.740769
vt 0.485379 0.529108
vt 0.537328 0.528971
vt 0.537328 0.801856
vt 0.486082 0.800797
vt 0.679873 0.019326
vt 0.731821 0.019365
vt 0.731821 0.231307
vt 0.675708 0.194767
vt 0.810082 0.699022
vt 0.761096 0.726169
vt 0.761096 0.528971
vt 0.810082 0.528971
vt 0.764720 0.891720
vt 0.764720 0.958681
vt 0.755816 0.956961
vt 0.750352 0.896933
vt 0.961017 0.783793
vt 0.961017 0.849713
vt 0.948291 0.843349
vt 0.952750 0.787521
vt 0.960686 0.952822
vt 0.948291 0.952454
vt 0.948291 0.888365
vt 0.960686 0.888734
vt 0.909638 0.783793
vt 0.909638 0.891832
vt 0.864049 0.877163
vt 0.848735 0.830632
vt 0.864049 0.785085
vt 0.805414 0.807254
vt 0.805414 0.853067
vt 0.575980 0.853065
vt 0.575980 0.807457
vt 0.674389 0.561208
vt 0.722444 0.528971
vt 0.722444 0.758405
vt 0.674391 0.758406
vt 0.818365 0.152777
vt 0.770474 0.189378
vt 0.770474 0.019326
vt 0.818365 0.019326
vt 0.201103 0.931796
vt 0.189051 0.934716
vt 0.189935 0.906100
vt 0.201103 0.905170
vt 0.627231 0.957483
vt 0.575986 0.956389
vt 0.575980 0.891720
vt 0.627231 0.893395
vt 0.711699 0.957880
vt 0.665886 0.957879
vt 0.665884 0.893790
vt 0.711699 0.891720
vt 0.150398 0.905170
vt 0.150399 0.937495
vt 0.138622 0.936761
vt 0.139236 0.906155
vt 0.040169 0.905170
vt 0.040169 0.956449
vt 0.020398 0.957104
vt 0.019326 0.924797
vt 0.099970 0.906066
vt 0.099970 0.951928
vt 0.078822 0.935750
vt 0.080208 0.905170
vt 0.980674 0.490318
vt 0.957426 0.490318
vt 0.957426 0.274149
vt 0.980674 0.274149
vt 0.933883 0.745140
vt 0.910635 0.745140
vt 0.910635 0.528971
vt 0.933883 0.528971
vt 0.895526 0.490318
vt 0.895526 0.274149
vt 0.918773 0.274149
vt 0.918773 0.490318
vt 0.274149 0.235496
vt 0.274149 0.019326
vt 0.490318 0.019326
vt 0.490318 0.235496
vt 0.771725 0.490318
vt 0.771725 0.274149
vt 0.794973 0.274149
vt 0.794973 0.490318
vt 0.019326 0.019326
vt 0.235496 0.019326
vt 0.235496 0.235496
vt 0.019326 0.235496
vt 0.880265 0.235496
vt 0.857017 0.235496
vt 0.857017 0.019326
vt 0.880265 0.019326
vt 0.856873 0.490318
vt 0.833625 0.490318
vt 0.833625 0.274149
vt 0.856873 0.274149
vt 0.848735 0.745140
vt 0.848735 0.528971
vt 0.871983 0.528971
vt 0.871983 0.745141
vt 0.490318 0.490318
vt 0.274149 0.490318
vt 0.274149 0.274149
vt 0.490318 0.274149
vt 0.918918 0.235496
vt 0.918918 0.019326
vt 0.942166 0.019326
vt 0.942166 0.235496
vt 0.235496 0.274149
vt 0.235496 0.490318
vt 0.019326 0.490318
vt 0.019326 0.274149
vt 0.980674 0.490318
vt 0.957426 0.490318
vt 0.957426 0.274149
vt 0.980674 0.274149
vt 0.933883 0.745140
vt 0.910635 0.745140
vt 0.910635 0.528971
vt 0.933883 0.528971
vt 0.274149 0.235496
vt 0.274149 0.019326
vt 0.490318 0.019326
vt 0.490318 0.235496
vt 0.771725 0.490318
vt 0.771725 0.274149
vt 0.794973 0.274149
vt 0.794973 0.490318
vt 0.019326 0.019326
vt 0.235496 0.019326
vt 0.235496 0.235496
vt 0.019326 0.235496
vt 0.880265 0.235496
vt 0.857017 0.235496
vt 0.857017 0.019326
vt 0.880265 0.019326
vt 0.856873 0.490318
vt 0.833625 0.490318
vt 0.833625 0.274149
vt 0.856873 0.274149
vt 0.848735 0.745140
vt 0.848735 0.528971
vt 0.871983 0.528971
vt 0.871983 0.745141
vt 0.490318 0.490318
vt 0.274149 0.490318
vt 0.274149 0.274149
vt 0.490318 0.274149
vt 0.918918 0.235496
vt 0.918918 0.019326
vt 0.942166 0.019326
vt 0.942166 0.235496
vt 0.235496 0.274149
vt 0.235496 0.490318
vt 0.019326 0.490318
vt 0.019326 0.274149
vt 0.102448 0.850960
vt 0.102448 0.799012
vt 0.019326 0.783793
vt 0.141101 0.866518
vt 0.224223 0.851299
vt 0.224223 0.799350
vt 0.019326 0.528971
vt 0.019326 0.745140
vt 0.528971 0.490318
vt 0.611695 0.490318
vt 0.611695 0.274149
vt 0.528971 0.274149
vt 0.223428 0.528971
vt 0.140703 0.528971
vt 0.140703 0.745140
vt 0.223428 0.745140
vt 0.650348 0.490318
vt 0.650348 0.274149
vt 0.446727 0.704930
vt 0.446727 0.569182
vt 0.560628 0.050984
vt 0.528971 0.127411
vt 0.560628 0.203839
vt 0.537328 0.840508
vt 0.454250 0.855966
vt 0.454250 0.907915
vt 0.537328 0.923233
vt 0.281743 0.528971
vt 0.274149 0.767899
vt 0.333681 0.801730
vt 0.333681 0.530040
vt 0.357226 0.840382
vt 0.274149 0.855700
vt 0.274149 0.907649
vt 0.357226 0.923107
vt 0.409688 0.840382
vt 0.395879 0.843813
vt 0.399664 0.901555
vt 0.409688 0.908856
vt 0.583791 0.528971
vt 0.575980 0.740769
vt 0.635736 0.768602
vt 0.635736 0.529553
vt 0.485379 0.529108
vt 0.486082 0.800797
vt 0.537328 0.528971
vt 0.679873 0.019326
vt 0.731821 0.231307
vt 0.731821 0.019365
vt 0.810082 0.699022
vt 0.810082 0.528971
vt 0.761096 0.528971
vt 0.761096 0.726169
vt 0.755816 0.956961
vt 0.764720 0.958681
vt 0.961017 0.783793
vt 0.952750 0.787521
vt 0.948291 0.843349
vt 0.961017 0.849713
vt 0.960686 0.952822
vt 0.960686 0.888734
vt 0.948291 0.888365
vt 0.948291 0.952454
vt 0.864049 0.785085
vt 0.848735 0.830632
vt 0.864049 0.877163
vt 0.805414 0.807254
vt 0.575980 0.807457
vt 0.674389 0.561208
vt 0.674391 0.758406
vt 0.722444 0.758405
vt 0.722444 0.528971
vt 0.770474 0.019326
vt 0.770474 0.189378
vt 0.201103 0.931796
vt 0.201103 0.905170
vt 0.189935 0.906100
vt 0.189051 0.934716
vt 0.627231 0.957483
vt 0.627231 0.893395
vt 0.665884 0.893790
vt 0.665886 0.957879
vt 0.150398 0.905170
vt 0.139236 0.906155
vt 0.040169 0.905170
vt 0.019326 0.924797
vt 0.078822 0.935750
vt 0.099970 0.951928
vt 0.980674 0.490318
vt 0.980674 0.274149
vt 0.957426 0.274149
vt 0.957426 0.490318
vt 0.933883 0.745140
vt 0.933883 0.528971
vt 0.910635 0.528971
vt 0.910635 0.745140
vt 0.895526 0.490318
vt 0.918773 0.490318
vt 0.918773 0.274149
vt 0.895526 0.274149
vt 0.274149 0.235496
vt 0.490318 0.235496
vt 0.490318 0.019326
vt 0.274149 0.019326
vt 0.771725 0.490318
vt 0.794973 0.490318
vt 0.794973 0.274149
vt 0.771725 0.274149
vt 0.019326 0.019326
vt 0.019326 0.235496
vt 0.235496 0.235496
vt 0.235496 0.019326
vt 0.880265 0.235496
vt 0.880265 0.019326
vt 0.857017 0.019326
vt 0.857017 0.235496
vt 0.856873 0.490318
vt 0.856873 0.274149
vt 0.833625 0.274149
vt 0.833625 0.490318
vt 0.848735 0.745140
vt 0.871983 0.745141
vt 0.871983 0.528971
vt 0.848735 0.528971
vt 0.490318 0.490318
vt 0.490318 0.274149
vt 0.274149 0.274149
vt 0.274149 0.490318
vt 0.918918 0.235496
vt 0.942166 0.235496
vt 0.942166 0.019326
vt 0.918918 0.019326
vt 0.235496 0.274149
vt 0.019326 0.274149
vt 0.019326 0.490318
vt 0.235496 0.490318
vt 0.980674 0.490318
vt 0.980674 0.274149
vt 0.957426 0.274149
vt 0.957426 0.490318
vt 0.933883 0.745140
vt 0.933883 0.528971
vt 0.910635 0.528971
vt 0.910635 0.745140
vt 0.274149 0.235496
vt 0.490318 0.235496
vt 0.490318 0.019326
vt 0.274149 0.019326
vt 0.771725 0.490318
vt 0.794973 0.490318
vt 0.794973 0.274149
vt 0.771725 0.274149
vt 0.019326 0.019326
vt 0.019326 0.235496
vt 0.235496 0.235496
vt 0.235496 0.019326
vt 0.880265 0.235496
vt 0.880265 0.019326
vt 0.857017 0.019326
vt 0.857017 0.235496
vt 0.856873 0.490318
vt 0.856873 0.274149
vt 0.833625 0.274149
vt 0.833625 0.490318
vt 0.848735 0.745140
vt 0.871983 0.745141
vt 0.871983 0.528971
vt 0.848735 0.528971
vt 0.490318 0.490318
vt 0.490318 0.274149
vt 0.274149 0.274149
vt 0.274149 0.490318
vt 0.918918 0.235496
vt 0.942166 0.235496
vt 0.942166 0.019326
vt 0.918918 0.019326
vt 0.235496 0.274149
vt 0.019326 0.274149
vt 0.019326 0.490318
vt 0.235496 0.490318
vn -0.8269 0.4461 0.3425
vn 0.8269 0.4461 0.3425
vn 0.9239 0.0000 0.3827
vn 0.3827 0.0000 0.9239
vn -0.3827 0.0000 0.9239
vn -0.9239 0.0000 0.3827
vn 0.0000 0.0025 -1.0000
vn 0.0000 -1.0000 -0.0000
vn -0.3427 0.4451 0.8273
vn 0.3961 -0.0237 0.9179
vn 0.3427 0.4451 0.8273
vn -0.4447 0.8540 0.2701
vn -0.3842 -0.0266 0.9229
vn 0.9768 0.0051 0.2142
vn -0.9116 -0.0436 0.4087
vn 0.3126 -0.0000 -0.9499
vn -0.1410 0.8152 -0.5618
vn -0.4304 0.8943 -0.1225
vn -0.4370 -0.0010 0.8995
vn 0.0000 1.0000 0.0000
vn -0.9996 0.0003 -0.0283
vn -0.3167 0.0005 -0.9485
vn 0.9519 -0.0000 -0.3063
vn -0.2530 0.5993 0.7595
vn 0.9993 0.0011 0.0379
vn -0.9996 -0.0016 -0.0290
vn 0.9986 0.0223 0.0486
vn -0.9993 -0.0111 -0.0350
vn 0.0000 0.0000 1.0000
vn 1.0000 0.0000 0.0000
vn 0.0000 0.0000 -1.0000
vn -1.0000 0.0000 0.0000
vn -0.8269 0.4461 -0.3425
vn 0.8269 0.4461 -0.3425
vn 0.9239 0.0000 -0.3827
vn 0.3827 0.0000 -0.9239
vn -0.3827 0.0000 -0.9239
vn -0.9239 0.0000 -0.3827
vn 0.0000 0.0025 1.0000
vn -0.3427 0.4451 -0.8273
vn 0.3961 -0.0237 -0.9179
vn 0.3427 0.4451 -0.8273
vn -0.4447 0.8540 -0.2701
vn -0.3842 -0.0266 -0.9229
vn 0.9768 0.0051 -0.2142
vn -0.9116 -0.0436 -0.4087
vn 0.3126 -0.0000 0.9499
vn -0.1410 0.8152 0.5618
vn -0.4304 0.8943 0.1225
vn -0.4370 -0.0010 -0.8995
vn -0.9996 0.0003 0.0283
vn -0.3167 0.0005 0.9485
vn 0.9519 -0.0000 0.3063
vn -0.2530 0.5993 -0.7595
vn 0.9993 0.0011 -0.0379
vn -0.9996 -0.0016 0.0290
vn 0.9986 0.0223 -0.0486
vn -0.9993 -0.0111 0.0350
usemtl None
s off
f 14/1/1 12/2/1 16/3/1 4/4/1
f 8/5/2 6/6/2 3/7/2 15/8/2
f 5/9/3 6/10/3 8/11/3 7/12/3
f 7/13/4 8/14/4 10/15/4 9/16/4
f 9/17/5 10/18/5 12/19/5 11/20/5
f 11/21/6 12/22/6 14/23/6 13/24/6
f 6/25/7 14/26/7 4/27/7 3/28/7
f 13/29/8 5/30/8 7/31/8 9/32/8 11/33/8
f 12/34/9 10/35/9 1/36/9 16/37/9
f 1/38/10 15/39/10 19/40/10 18/41/10
f 10/42/11 8/43/11 15/44/11 1/45/11
f 18/46/12 19/47/12 24/48/12 23/49/12
f 16/50/13 1/51/13 18/52/13 17/53/13
f 15/54/14 3/55/14 20/56/14 19/57/14
f 4/58/15 16/59/15 17/60/15 2/61/15
f 22/62/16 23/63/16 28/64/16 27/65/16
f 2/66/17 17/67/17 22/68/17 21/69/17
f 17/70/18 18/71/18 23/72/18 22/73/18
f 24/74/19 19/75/19 31/76/19 33/77/19
f 30/78/20 26/79/20 27/80/20 28/81/20 29/82/20
f 24/83/21 25/84/21 30/85/21 29/86/21
f 23/87/22 24/88/22 29/89/22 28/90/22
f 21/91/23 22/92/23 27/93/23 26/94/23
f 33/95/24 31/96/24 35/97/24 37/98/24
f 19/99/25 20/100/25 32/101/25 31/102/25
f 25/103/26 24/104/26 33/105/26 34/106/26
f 35/107/20 36/108/20 38/109/20 37/110/20
f 31/111/27 32/112/27 36/113/27 35/114/27
f 34/115/28 33/116/28 37/117/28 38/118/28
f 39/119/20 43/120/20 45/121/20 41/122/20
f 44/123/8 40/124/8 42/125/8 46/126/8
f 42/127/29 41/128/29 45/129/29 46/130/29
f 40/131/30 39/132/30 41/133/30 42/134/30
f 44/135/31 43/136/31 39/137/31 40/138/31
f 46/139/32 45/140/32 43/141/32 44/142/32
f 47/143/20 51/144/20 53/145/20 49/146/20
f 52/147/8 48/148/8 50/149/8 54/150/8
f 50/151/29 49/152/29 53/153/29 54/154/29
f 48/155/30 47/156/30 49/157/30 50/158/30
f 52/159/31 51/160/31 47/161/31 48/162/31
f 54/163/32 53/164/32 51/165/32 52/166/32
f 55/167/20 59/168/20 61/169/20 57/170/20
f 60/171/8 56/172/8 58/173/8 62/174/8
f 56/175/30 55/176/30 57/177/30 58/178/30
f 60/179/31 59/180/31 55/181/31 56/182/31
f 62/183/32 61/184/32 59/185/32 60/186/32
f 63/187/20 67/188/20 69/189/20 65/190/20
f 68/191/8 64/192/8 66/193/8 70/194/8
f 66/195/29 65/196/29 69/197/29 70/198/29
f 64/199/30 63/200/30 65/201/30 66/202/30
f 68/203/31 67/204/31 63/205/31 64/206/31
f 70/207/32 69/208/32 67/209/32 68/210/32
f 14/1/33 73/211/33 81/212/33 79/213/33
f 75/214/34 80/215/34 72/216/34 6/6/34
f 5/9/35 74/217/35 75/218/35 6/10/35
f 74/219/36 76/220/36 77/221/36 75/222/36
f 76/223/37 78/224/37 79/225/37 77/226/37
f 78/227/38 13/24/38 14/23/38 79/228/38
f 6/25/39 72/229/39 73/230/39 14/26/39
f 13/29/8 78/231/8 76/232/8 74/233/8 5/30/8
f 79/234/40 81/235/40 71/236/40 77/237/40
f 71/238/41 83/239/41 84/240/41 80/241/41
f 77/242/42 71/243/42 80/244/42 75/245/42
f 83/246/43 86/247/43 87/248/43 84/249/43
f 81/250/44 82/251/44 83/252/44 71/253/44
f 80/254/45 84/255/45 20/56/45 72/256/45
f 73/257/46 2/61/46 82/258/46 81/259/46
f 85/260/47 88/261/47 89/262/47 86/263/47
f 2/66/48 21/69/48 85/264/48 82/265/48
f 82/266/49 85/267/49 86/268/49 83/269/49
f 87/270/50 92/271/50 91/272/50 84/273/50
f 30/78/20 90/274/20 89/275/20 88/276/20 26/79/20
f 87/277/51 90/278/51 30/85/51 25/84/51
f 86/279/52 89/280/52 90/281/52 87/282/52
f 21/91/53 26/94/53 88/283/53 85/284/53
f 92/285/54 94/286/54 93/287/54 91/288/54
f 84/289/55 91/290/55 32/101/55 20/100/55
f 25/103/56 34/106/56 92/291/56 87/292/56
f 93/293/20 94/294/20 38/109/20 36/108/20
f 91/295/57 93/296/57 36/113/57 32/112/57
f 34/115/58 38/118/58 94/297/58 92/298/58
f 95/299/20 97/300/20 101/301/20 99/302/20
f 100/303/8 102/304/8 98/305/8 96/306/8
f 98/307/31 102/308/31 101/309/31 97/310/31
f 96/311/30 98/312/30 97/313/30 95/314/30
f 100/315/29 96/316/29 95/317/29 99/318/29
f 102/319/32 100/320/32 99/321/32 101/322/32
f 103/323/20 105/324/20 109/325/20 107/326/20
f 108/327/8 110/328/8 106/329/8 104/330/8
f 106/331/31 110/332/31 109/333/31 105/334/31
f 104/335/30 106/336/30 105/337/30 103/338/30
f 108/339/29 104/340/29 103/341/29 107/342/29
f 110/343/32 108/344/32 107/345/32 109/346/32
f 111/347/20 113/348/20 117/349/20 115/350/20
f 116/351/8 118/352/8 114/353/8 112/354/8
f 112/355/30 114/356/30 113/357/30 111/358/30
f 116/359/29 112/360/29 111/361/29 115/362/29
f 118/363/32 116/364/32 115/365/32 117/366/32
f 119/367/20 121/368/20 125/369/20 123/370/20
f 124/371/8 126/372/8 122/373/8 120/374/8
f 122/375/31 126/376/31 125/377/31 121/378/31
f 120/379/30 122/380/30 121/381/30 119/382/30
f 124/383/29 120/384/29 119/385/29 123/386/29
f 126/387/32 124/388/32 123/389/32 125/390/32
